<svg width="56" height="56" viewBox="0 0 56 56" fill="none" xmlns="http://www.w3.org/2000/svg">
<path fill-rule="evenodd" clip-rule="evenodd" d="M19.2004 0C16.0415 0 13.012 1.25487 10.7783 3.48856L0 14.2668V19.2004C0 22.686 1.49722 25.8219 3.88362 28C1.49722 30.1781 0 33.314 0 36.7996V41.7332L10.7783 52.5115C13.012 54.7452 16.0415 56 19.2004 56C22.686 56 25.8219 54.5028 28 52.1164C30.1781 54.5028 33.314 56 36.7996 56C39.9585 56 42.988 54.7452 45.2217 52.5115L56 41.7332V36.7996C56 33.314 54.5029 30.1781 52.1164 28C54.5029 25.8219 56 22.686 56 19.2004V14.2668L45.2217 3.48856C42.988 1.25487 39.9585 0 36.7996 0C33.314 0 30.1781 1.49721 28 3.88361C25.8219 1.49721 22.686 0 19.2004 0ZM36.0623 28C35.9281 27.8775 35.7963 27.7516 35.6673 27.6225L28 19.9553L20.3328 27.6225C20.2037 27.7516 20.0719 27.8775 19.9377 28C20.0719 28.1225 20.2037 28.2483 20.3328 28.3774L28 36.0447L35.6673 28.3774C35.7963 28.2483 35.9281 28.1225 36.0623 28ZM31.1111 41.7332V44.0894C31.1111 47.231 33.658 49.7778 36.7996 49.7778C38.3082 49.7778 39.7551 49.1785 40.8219 48.1117L49.7779 39.1558V36.7996C49.7779 33.658 47.231 31.1111 44.0894 31.1111C42.5807 31.1111 41.1338 31.7104 40.067 32.7772L31.1111 41.7332ZM24.8889 41.7332L15.933 32.7772C14.8662 31.7104 13.4193 31.1111 11.9107 31.1111C8.76903 31.1111 6.22222 33.658 6.22222 36.7996V39.1558L15.1781 48.1117C16.2449 49.1785 17.6918 49.7778 19.2004 49.7778C22.342 49.7778 24.8889 47.231 24.8889 44.0894V41.7332ZM24.8889 11.9107V14.2668L15.933 23.2228C14.8662 24.2896 13.4193 24.8889 11.9107 24.8889C8.76903 24.8889 6.22222 22.342 6.22222 19.2004V16.8442L15.1781 7.88833C16.2449 6.82154 17.6918 6.22223 19.2004 6.22223C22.342 6.22223 24.8889 8.76902 24.8889 11.9107ZM40.067 23.2228L31.1111 14.2668V11.9107C31.1111 8.76902 33.658 6.22223 36.7996 6.22223C38.3082 6.22223 39.7551 6.82154 40.8219 7.88833L49.7779 16.8442V19.2004C49.7779 22.342 47.231 24.8889 44.0894 24.8889C42.5807 24.8889 41.1338 24.2896 40.067 23.2228Z" fill="white"/>
</svg>
