<svg width="193" height="57" viewBox="0 0 193 57" fill="none" xmlns="http://www.w3.org/2000/svg">
<path d="M11.628 49.428C10.188 49.428 8.844 49.224 7.596 48.816C6.372 48.408 5.292 47.832 4.356 47.088C3.444 46.368 2.724 45.504 2.196 44.496C1.692 43.488 1.44 42.396 1.44 41.22C1.44 40.74 1.476 40.116 1.548 39.348C1.644 38.556 1.752 37.68 1.872 36.72C2.016 35.736 2.172 34.728 2.34 33.696L5.652 34.128C5.388 35.712 5.172 37.152 5.004 38.448C4.86 39.72 4.788 40.62 4.788 41.148C4.788 42.18 5.076 43.092 5.652 43.884C6.228 44.676 7.032 45.3 8.064 45.756C9.096 46.212 10.284 46.44 11.628 46.44H21.816C23.568 46.44 24.888 45.972 25.776 45.036C26.688 44.1 27.144 42.672 27.144 40.752C27.144 39.816 27 39.084 26.712 38.556C26.424 38.028 25.908 37.584 25.164 37.224C24.444 36.84 23.4 36.444 22.032 36.036C20.76 35.652 19.62 35.292 18.612 34.956C17.604 34.596 16.74 34.188 16.02 33.732C15.324 33.252 14.796 32.652 14.436 31.932C14.076 31.212 13.896 30.288 13.896 29.16C13.896 27.648 14.208 26.4 14.832 25.416C15.48 24.432 16.392 23.7 17.568 23.22C18.768 22.716 20.208 22.464 21.888 22.464L21.78 25.488C20.196 25.488 19.044 25.776 18.324 26.352C17.604 26.904 17.244 27.792 17.244 29.016C17.244 29.904 17.46 30.588 17.892 31.068C18.324 31.548 18.972 31.932 19.836 32.22C20.7 32.508 21.756 32.832 23.004 33.192C24.54 33.648 25.872 34.164 27 34.74C28.128 35.292 28.992 36.048 29.592 37.008C30.192 37.944 30.492 39.228 30.492 40.86C30.492 42.54 30.144 44.016 29.448 45.288C28.776 46.584 27.792 47.592 26.496 48.312C25.224 49.056 23.664 49.428 21.816 49.428H11.628ZM33.84 40.5V22.464H37.188V38.88L35.496 37.512H41.076V40.5H33.84ZM21.78 25.488L21.888 22.464H33.84V25.488H21.78ZM41.076 40.5V37.512C41.364 37.512 41.556 37.644 41.652 37.908C41.748 38.172 41.796 38.532 41.796 38.988C41.796 39.444 41.748 39.816 41.652 40.104C41.556 40.368 41.364 40.5 41.076 40.5ZM28.404 19.548V16.056H31.788V19.548H28.404ZM33.336 19.548V16.056H36.72V19.548H33.336ZM11.808 56.268V52.776H15.192V56.268H11.808ZM16.74 56.268V52.776H20.124V56.268H16.74ZM41.4225 40.5V37.512H57.1905L56.1105 38.412V30.096C56.1105 28.584 55.6305 27.444 54.6705 26.676C53.7345 25.908 52.2705 25.524 50.2785 25.524C49.6785 25.524 48.8145 25.572 47.6865 25.668C46.5825 25.764 45.4065 25.908 44.1585 26.1L43.7985 23.364C44.7825 23.124 45.8505 22.92 47.0025 22.752C48.1545 22.56 49.2705 22.464 50.3505 22.464C52.2225 22.464 53.8305 22.764 55.1745 23.364C56.5425 23.964 57.5985 24.84 58.3425 25.992C59.0865 27.12 59.4585 28.488 59.4585 30.096V40.5H41.4225ZM41.4225 40.5C41.1105 40.5 40.9185 40.368 40.8465 40.104C40.7505 39.816 40.7025 39.444 40.7025 38.988C40.7025 38.532 40.7505 38.172 40.8465 37.908C40.9185 37.644 41.1105 37.512 41.4225 37.512V40.5ZM68.6942 40.5V37.512H73.0142V40.5H68.6942ZM65.3462 40.5V14.796H68.6942V40.5H65.3462ZM73.0142 40.5V37.512C73.3022 37.512 73.4942 37.644 73.5902 37.908C73.6862 38.172 73.7342 38.532 73.7342 38.988C73.7342 39.444 73.6862 39.816 73.5902 40.104C73.4942 40.368 73.3022 40.5 73.0142 40.5ZM101.297 40.5V37.512H105.149V40.5H101.297ZM92.9093 40.5C92.0453 40.5 91.1933 40.344 90.3533 40.032C89.5373 39.696 88.7573 39.18 88.0133 38.484L90.1373 36.252C90.6653 36.684 91.1453 37.008 91.5773 37.224C92.0093 37.416 92.4533 37.512 92.9093 37.512H99.4253L97.9493 38.952V30.528C97.9493 30.096 97.9013 29.496 97.8053 28.728C97.7333 27.936 97.6133 27.048 97.4453 26.064C97.3013 25.056 97.1213 24.036 96.9053 23.004L100.181 22.464C100.349 23.328 100.517 24.276 100.685 25.308C100.853 26.34 100.997 27.324 101.117 28.26C101.237 29.196 101.297 29.952 101.297 30.528V40.5H92.9093ZM73.3613 40.5V37.512H78.6173L77.7893 38.34V26.1H81.1373V40.5H73.3613ZM81.1373 40.5V37.512H84.8813C85.6973 37.512 86.3093 37.392 86.7173 37.152C87.1253 36.912 87.4133 36.432 87.5813 35.712C87.7493 34.992 87.8333 33.936 87.8333 32.544V24.3H91.2173V32.544C91.2173 34.488 90.9893 36.048 90.5333 37.224C90.1013 38.4 89.4293 39.24 88.5173 39.744C87.6053 40.248 86.3933 40.5 84.8813 40.5H81.1373ZM73.3613 40.5C73.0493 40.5 72.8573 40.368 72.7853 40.104C72.6893 39.816 72.6413 39.444 72.6413 38.988C72.6413 38.532 72.6893 38.172 72.7853 37.908C72.8573 37.644 73.0493 37.512 73.3613 37.512V40.5ZM105.149 40.5V37.512C105.461 37.512 105.653 37.644 105.725 37.908C105.821 38.172 105.869 38.532 105.869 38.988C105.869 39.444 105.821 39.816 105.725 40.104C105.653 40.368 105.461 40.5 105.149 40.5ZM105.503 40.5V37.512H124.907L122.783 39.096V31.644C122.783 30.06 122.603 28.824 122.243 27.936C121.907 27.048 121.307 26.412 120.443 26.028C119.579 25.644 118.403 25.452 116.915 25.452C115.907 25.452 114.911 25.524 113.927 25.668C112.943 25.812 112.175 26.004 111.623 26.244L113.675 24.228C113.531 24.78 113.387 25.488 113.243 26.352C113.099 27.216 112.979 28.152 112.883 29.16C112.787 30.144 112.739 31.128 112.739 32.112C112.739 33.096 112.787 34.068 112.883 35.028C112.979 35.988 113.087 36.828 113.207 37.548C113.327 38.268 113.423 38.76 113.495 39.024L110.291 39.924C110.195 39.612 110.075 39.072 109.931 38.304C109.811 37.536 109.691 36.612 109.571 35.532C109.475 34.452 109.427 33.312 109.427 32.112C109.427 30.936 109.475 29.796 109.571 28.692C109.691 27.564 109.823 26.544 109.967 25.632C110.135 24.72 110.291 23.988 110.435 23.436C110.987 23.22 111.839 23.004 112.991 22.788C114.167 22.572 115.475 22.464 116.915 22.464C118.955 22.464 120.659 22.764 122.027 23.364C123.419 23.964 124.451 24.936 125.123 26.28C125.819 27.6 126.167 29.388 126.167 31.644V40.5H105.503ZM105.503 40.5C105.191 40.5 104.999 40.368 104.927 40.104C104.831 39.816 104.783 39.444 104.783 38.988C104.783 38.532 104.831 38.172 104.927 37.908C104.999 37.644 105.191 37.512 105.503 37.512V40.5Z" fill="white"/>
<path fill-rule="evenodd" clip-rule="evenodd" d="M156.2 0C153.041 0 150.012 1.25487 147.778 3.48856L137 14.2668V19.2004C137 22.686 138.497 25.8219 140.884 28C138.497 30.1781 137 33.314 137 36.7995V41.7332L147.778 52.5115C150.012 54.7452 153.041 56 156.2 56C159.686 56 162.822 54.5028 165 52.1164C167.178 54.5028 170.314 56 173.8 56C176.959 56 179.988 54.7452 182.222 52.5115L193 41.7332V36.7995C193 33.314 191.503 30.1781 189.116 28C191.503 25.8219 193 22.686 193 19.2004V14.2668L182.222 3.48856C179.988 1.25487 176.959 0 173.8 0C170.314 0 167.178 1.49721 165 3.88361C162.822 1.49721 159.686 0 156.2 0ZM173.062 28C172.928 27.8775 172.796 27.7516 172.667 27.6225L165 19.9553L157.333 27.6225C157.204 27.7516 157.072 27.8775 156.938 28C157.072 28.1225 157.204 28.2483 157.333 28.3774L165 36.0447L172.667 28.3774C172.796 28.2483 172.928 28.1225 173.062 28ZM168.111 41.7332V44.0894C168.111 47.231 170.658 49.7778 173.8 49.7778C175.308 49.7778 176.755 49.1785 177.822 48.1117L186.778 39.1558V36.7995C186.778 33.658 184.231 31.1111 181.089 31.1111C179.581 31.1111 178.134 31.7104 177.067 32.7772L168.111 41.7332ZM161.889 41.7332L152.933 32.7772C151.866 31.7104 150.419 31.1111 148.911 31.1111C145.769 31.1111 143.222 33.658 143.222 36.7995V39.1558L152.178 48.1117C153.245 49.1785 154.692 49.7778 156.2 49.7778C159.342 49.7778 161.889 47.231 161.889 44.0894V41.7332ZM161.889 11.9107V14.2668L152.933 23.2228C151.866 24.2896 150.419 24.8889 148.911 24.8889C145.769 24.8889 143.222 22.342 143.222 19.2004V16.8442L152.178 7.88833C153.245 6.82154 154.692 6.22223 156.2 6.22223C159.342 6.22223 161.889 8.76902 161.889 11.9107ZM177.067 23.2228L168.111 14.2668V11.9107C168.111 8.76902 170.658 6.22223 173.8 6.22223C175.308 6.22223 176.755 6.82154 177.822 7.88833L186.778 16.8442V19.2004C186.778 22.342 184.231 24.8889 181.089 24.8889C179.581 24.8889 178.134 24.2896 177.067 23.2228Z" fill="white"/>
</svg>
