<svg width="86" height="62" viewBox="0 0 86 62" fill="none" xmlns="http://www.w3.org/2000/svg">
<rect width="84" height="62" rx="12" fill="#7CC8FB"/>
<path d="M55.4805 31L58.1172 28.3633C58.2418 28.2344 58.3107 28.0617 58.3092 27.8825C58.3077 27.7032 58.2358 27.5317 58.1091 27.405C57.9824 27.2782 57.8109 27.2063 57.6317 27.2047C57.4525 27.2031 57.2798 27.272 57.1508 27.3965L54.2309 30.3164H52.4637L53.9957 28.784C54.1239 28.6558 54.1959 28.482 54.1959 28.3008C54.1959 28.1195 54.1239 27.9457 53.9957 27.8176C53.8676 27.6894 53.6938 27.6174 53.5125 27.6174C53.3313 27.6174 53.1575 27.6894 53.0293 27.8176L50.5293 30.3176H45.611C45.5487 30.0794 45.454 29.8509 45.3293 29.6386L48.8078 26.1597H52.3422C52.5235 26.1597 52.6974 26.0877 52.8256 25.9595C52.9538 25.8313 53.0258 25.6574 53.0258 25.4761C53.0258 25.2948 52.9538 25.121 52.8256 24.9928C52.6974 24.8646 52.5235 24.7926 52.3422 24.7926H50.175L51.6246 23.3437C51.7531 23.2153 51.8253 23.0411 51.8253 22.8595C51.8254 22.6778 51.7533 22.5036 51.6248 22.3752C51.4964 22.2467 51.3222 22.1745 51.1406 22.1745C50.959 22.1744 50.7847 22.2466 50.6563 22.375L49.2071 23.8246V21.6574C49.2071 21.4761 49.135 21.3022 49.0068 21.174C48.8786 21.0458 48.7048 20.9738 48.5235 20.9738C48.3422 20.9738 48.1683 21.0458 48.0401 21.174C47.9119 21.3022 47.8399 21.4761 47.8399 21.6574V25.1922L44.361 28.6707C44.1487 28.5461 43.9202 28.4514 43.6821 28.389V23.4699L46.1821 20.9699C46.3066 20.841 46.3756 20.6683 46.374 20.4891C46.3725 20.3099 46.3007 20.1384 46.1739 20.0116C46.0472 19.8849 45.8758 19.8129 45.6965 19.8113C45.5173 19.8097 45.3446 19.8786 45.2157 20.0031L43.6836 21.5363V19.7695L46.6035 16.8496C46.667 16.7861 46.7174 16.7107 46.7517 16.6278C46.7861 16.5449 46.8038 16.456 46.8038 16.3662C46.8038 16.2764 46.7861 16.1875 46.7517 16.1046C46.7174 16.0216 46.667 15.9463 46.6035 15.8828C46.5401 15.8193 46.4647 15.7689 46.3818 15.7346C46.2988 15.7002 46.2099 15.6826 46.1202 15.6826C46.0304 15.6826 45.9415 15.7002 45.8585 15.7346C45.7756 15.7689 45.7002 15.8193 45.6368 15.8828L43 18.5195L40.3633 15.8828C40.2351 15.7546 40.0612 15.6826 39.8799 15.6826C39.6986 15.6826 39.5247 15.7546 39.3965 15.8828C39.2683 16.011 39.1963 16.1849 39.1963 16.3662C39.1963 16.5475 39.2683 16.7214 39.3965 16.8496L42.3164 19.7695V21.5363L40.784 20.0039C40.6551 19.8794 40.4824 19.8105 40.3031 19.8121C40.1239 19.8137 39.9525 19.8856 39.8257 20.0124C39.699 20.1392 39.6272 20.3106 39.6256 20.4899C39.6241 20.6691 39.6931 20.8418 39.8176 20.9707L42.3176 23.4707V28.389C42.0795 28.4515 41.8511 28.5463 41.6387 28.6707L38.1598 25.1922V21.6574C38.1598 21.4761 38.0878 21.3022 37.9596 21.174C37.8314 21.0458 37.6575 20.9738 37.4762 20.9738C37.2949 20.9738 37.121 21.0458 36.9928 21.174C36.8646 21.3022 36.7926 21.4761 36.7926 21.6574V23.825L35.3438 22.375C35.2802 22.3114 35.2047 22.2609 35.1216 22.2265C35.0384 22.1921 34.9494 22.1743 34.8594 22.1743C34.7695 22.1743 34.6804 22.1921 34.5973 22.2265C34.5142 22.2609 34.4386 22.3114 34.375 22.375C34.3114 22.4386 34.261 22.5141 34.2265 22.5972C34.1921 22.6803 34.1744 22.7694 34.1744 22.8593C34.1744 22.9493 34.1921 23.0384 34.2265 23.1215C34.261 23.2046 34.3114 23.2801 34.375 23.3437L35.825 24.7933H33.6575C33.4762 24.7933 33.3023 24.8654 33.1741 24.9936C33.0459 25.1218 32.9739 25.2956 32.9739 25.4769C32.9739 25.6582 33.0459 25.8321 33.1741 25.9603C33.3023 26.0885 33.4762 26.1605 33.6575 26.1605H37.1922L40.6707 29.6394C40.5463 29.8518 40.4516 30.0802 40.3891 30.3183H35.47L32.97 27.8183C32.8411 27.6938 32.6684 27.6248 32.4892 27.6264C32.3099 27.6279 32.1384 27.6997 32.0117 27.8265C31.8849 27.9532 31.813 28.1246 31.8114 28.3039C31.8098 28.4831 31.8787 28.6558 32.0032 28.7847L33.5356 30.3172H31.7696L28.8496 27.3972C28.7204 27.2746 28.5484 27.2073 28.3703 27.2096C28.1921 27.2119 28.0219 27.2836 27.8959 27.4095C27.7699 27.5355 27.698 27.7056 27.6956 27.8837C27.6931 28.0619 27.7603 28.2339 27.8828 28.3633L30.5196 31L27.8828 33.6367C27.7546 33.7649 27.6826 33.9388 27.6826 34.1201C27.6826 34.3014 27.7546 34.4753 27.8828 34.6035C28.0111 34.7317 28.1849 34.8037 28.3662 34.8037C28.5476 34.8037 28.7214 34.7317 28.8496 34.6035L31.7696 31.6836H33.5364L32.0039 33.216C31.9387 33.2791 31.8866 33.3545 31.8508 33.4379C31.815 33.5213 31.7961 33.611 31.7954 33.7018C31.7946 33.7926 31.8119 33.8826 31.8463 33.9666C31.8807 34.0506 31.9315 34.1269 31.9957 34.1911C32.0599 34.2552 32.1362 34.306 32.2202 34.3403C32.3042 34.3747 32.3943 34.392 32.485 34.3912C32.5758 34.3904 32.6655 34.3715 32.7489 34.3356C32.8323 34.2998 32.9077 34.2477 32.9707 34.1824L35.4707 31.6824H40.3891C40.4516 31.9205 40.5463 32.1489 40.6707 32.3613L37.1922 35.8402H33.6575C33.4762 35.8402 33.3023 35.9122 33.1741 36.0404C33.0459 36.1686 32.9739 36.3425 32.9739 36.5238C32.9739 36.7051 33.0459 36.879 33.1741 37.0072C33.3023 37.1354 33.4762 37.2074 33.6575 37.2074H35.825L34.375 38.6582C34.3116 38.7218 34.2612 38.7973 34.2269 38.8803C34.1926 38.9634 34.175 39.0524 34.1751 39.1423C34.1752 39.2321 34.193 39.3211 34.2274 39.4041C34.2619 39.4871 34.3124 39.5625 34.376 39.626C34.4396 39.6894 34.5151 39.7398 34.5982 39.7741C34.6812 39.8084 34.7702 39.826 34.8601 39.8259C34.95 39.8258 35.0389 39.808 35.1219 39.7735C35.2049 39.7391 35.2803 39.6886 35.3438 39.625L36.7934 38.175V40.3426C36.7934 40.5239 36.8654 40.6977 36.9936 40.8259C37.1218 40.9541 37.2957 41.0261 37.477 41.0261C37.6583 41.0261 37.8322 40.9541 37.9604 40.8259C38.0886 40.6977 38.1606 40.5239 38.1606 40.3426V36.8078L41.6395 33.3293C41.8519 33.4537 42.0803 33.5484 42.3184 33.6109V38.5301L39.8184 41.0301C39.6938 41.159 39.6249 41.3316 39.6264 41.5109C39.628 41.6901 39.6998 41.8616 39.8265 41.9883C39.9532 42.1151 40.1247 42.187 40.3039 42.1886C40.4832 42.1902 40.6558 42.1213 40.7848 41.9969L42.3172 40.4644V42.2304L39.3973 45.1504C39.331 45.2132 39.278 45.2886 39.2414 45.3722C39.2047 45.4558 39.1852 45.546 39.1839 45.6372C39.1827 45.7285 39.1997 45.8192 39.2341 45.9037C39.2684 45.9883 39.3194 46.0652 39.3839 46.1298C39.4484 46.1944 39.5252 46.2454 39.6098 46.2798C39.6944 46.3142 39.785 46.3313 39.8763 46.3301C39.9676 46.329 40.0577 46.3095 40.1413 46.2729C40.225 46.2364 40.3005 46.1834 40.3633 46.1172L43 43.4804L45.6368 46.1172C45.7002 46.1806 45.7756 46.231 45.8585 46.2654C45.9415 46.2997 46.0304 46.3174 46.1202 46.3174C46.2099 46.3174 46.2988 46.2997 46.3818 46.2654C46.4647 46.231 46.5401 46.1806 46.6035 46.1172C46.667 46.0537 46.7174 45.9783 46.7517 45.8954C46.7861 45.8124 46.8038 45.7235 46.8038 45.6338C46.8038 45.544 46.7861 45.4551 46.7517 45.3722C46.7174 45.2892 46.667 45.2138 46.6035 45.1504L43.6836 42.2304V40.4636L45.216 41.9961C45.345 42.1206 45.5177 42.1894 45.6969 42.1878C45.8762 42.1862 46.0476 42.1143 46.1743 41.9875C46.301 41.8608 46.3729 41.6893 46.3744 41.5101C46.3759 41.3308 46.307 41.1582 46.1825 41.0293L43.6825 38.5293V33.6109C43.9206 33.5486 44.149 33.4538 44.3614 33.3293L47.8403 36.8078V40.3426C47.8403 40.5239 47.9123 40.6977 48.0405 40.8259C48.1687 40.9541 48.3426 41.0261 48.5239 41.0261C48.7052 41.0261 48.879 40.9541 49.0072 40.8259C49.1354 40.6977 49.2075 40.5239 49.2075 40.3426V38.1754L50.6563 39.625C50.7198 39.6885 50.7951 39.7388 50.8781 39.7732C50.961 39.8075 51.0499 39.8252 51.1397 39.8252C51.2295 39.8252 51.3184 39.8075 51.4013 39.7732C51.4842 39.7388 51.5596 39.6885 51.6231 39.625C51.6866 39.5615 51.7369 39.4861 51.7713 39.4032C51.8056 39.3202 51.8233 39.2314 51.8233 39.1416C51.8233 39.0518 51.8056 38.9629 51.7713 38.88C51.7369 38.797 51.6866 38.7217 51.6231 38.6582L50.1735 37.2086H52.3407C52.522 37.2086 52.6958 37.1365 52.824 37.0084C52.9522 36.8802 53.0243 36.7063 53.0243 36.525C53.0243 36.3437 52.9522 36.1698 52.824 36.0416C52.6958 35.9134 52.522 35.8414 52.3407 35.8414H48.8078L45.3293 32.3625C45.454 32.1502 45.5487 31.9217 45.611 31.6836H50.5301L53.0301 34.1836C53.0936 34.247 53.1689 34.2974 53.2518 34.3317C53.3347 34.366 53.4236 34.3837 53.5133 34.3837C53.6031 34.3837 53.6919 34.366 53.7748 34.3317C53.8577 34.2974 53.9331 34.247 53.9965 34.1836C54.06 34.1201 54.1103 34.0448 54.1447 33.9619C54.179 33.879 54.1967 33.7901 54.1967 33.7004C54.1967 33.6106 54.179 33.5218 54.1447 33.4389C54.1103 33.3559 54.06 33.2806 53.9965 33.2172L52.4637 31.6836H54.2309L57.1508 34.6035C57.2798 34.728 57.4525 34.7969 57.6317 34.7953C57.8109 34.7937 57.9824 34.7217 58.1091 34.595C58.2358 34.4682 58.3077 34.2967 58.3092 34.1175C58.3107 33.9383 58.2418 33.7656 58.1172 33.6367L55.4805 31ZM43 32.3347C42.736 32.3347 42.478 32.2565 42.2585 32.1098C42.039 31.9631 41.8679 31.7547 41.7669 31.5108C41.6658 31.2669 41.6394 30.9985 41.6909 30.7396C41.7424 30.4807 41.8695 30.2428 42.0562 30.0562C42.2429 29.8695 42.4807 29.7424 42.7396 29.6909C42.9986 29.6394 43.2669 29.6658 43.5108 29.7668C43.7547 29.8678 43.9632 30.0389 44.1099 30.2584C44.2565 30.4779 44.3348 30.736 44.3348 31C44.3344 31.3539 44.1936 31.6931 43.9434 31.9433C43.6932 32.1936 43.3539 32.3343 43 32.3347Z" fill="#BFFDFF"/>
</svg>
