<svg width="86" height="62" viewBox="0 0 86 62" fill="none" xmlns="http://www.w3.org/2000/svg">
<rect width="84" height="62" rx="12" fill="#3586CB"/>
<path d="M27.0857 43.0273H31.183V45.2693C31.183 45.5203 31.0833 45.7609 30.9058 45.9384C30.7284 46.1158 30.4878 46.2155 30.2368 46.2155H28.0318C27.7809 46.2155 27.5402 46.1158 27.3628 45.9384C27.1854 45.7609 27.0857 45.5203 27.0857 45.2693V43.0273Z" fill="#DB1B1B"/>
<path d="M54.4102 43.0273H58.5075V45.2693C58.5075 45.5203 58.4078 45.7609 58.2304 45.9384C58.053 46.1158 57.8123 46.2155 57.5614 46.2155H55.3519C55.101 46.2155 54.8603 46.1158 54.6829 45.9384C54.5054 45.7609 54.4058 45.5203 54.4058 45.2693V43.0273H54.4102Z" fill="#DB1B1B"/>
<path d="M57.346 15H28.2471C27.6057 15 27.0857 15.52 27.0857 16.1614V43.488C27.0857 44.1294 27.6057 44.6493 28.2471 44.6493H57.346C57.9874 44.6493 58.5073 44.1294 58.5073 43.488V16.1614C58.5073 15.52 57.9874 15 57.346 15Z" fill="#F55B4B"/>
<path d="M55.8091 16.5648H29.7828C29.2089 16.5648 28.7437 17.03 28.7437 17.6039V42.0451C28.7437 42.619 29.2089 43.0843 29.7828 43.0843H55.8091C56.383 43.0843 56.8483 42.619 56.8483 42.0451V17.6039C56.8483 17.03 56.383 16.5648 55.8091 16.5648Z" fill="#32314B"/>
<path d="M56.8494 17.6039V20.1822H33.7837C33.5081 20.1822 33.2438 20.2917 33.0489 20.4866C32.854 20.6815 32.7445 20.9458 32.7445 21.2214V43.0809H29.7828C29.5072 43.0809 29.2429 42.9714 29.048 42.7765C28.8531 42.5817 28.7437 42.3173 28.7437 42.0417V17.6039C28.7437 17.4675 28.7705 17.3323 28.8228 17.2063C28.875 17.0802 28.9515 16.9656 29.048 16.8691C29.1445 16.7726 29.2591 16.6961 29.3851 16.6439C29.5112 16.5916 29.6464 16.5648 29.7828 16.5648H55.8102C55.9467 16.5648 56.0818 16.5916 56.2079 16.6439C56.334 16.6961 56.4485 16.7726 56.545 16.8691C56.6415 16.9656 56.7181 17.0802 56.7703 17.2063C56.8225 17.3323 56.8494 17.4675 56.8494 17.6039Z" fill="#27273D"/>
<path d="M28.2897 16.5648H18.8452C18.3784 16.5648 18 16.9432 18 17.41V42.239C18 42.7058 18.3784 43.0843 18.8452 43.0843H28.2897C28.7565 43.0843 29.1349 42.7058 29.1349 42.239V17.41C29.1349 16.9432 28.7565 16.5648 28.2897 16.5648Z" fill="#FC715A"/>
<path d="M27.8736 19.512H19.2599C19.0376 19.512 18.8574 19.6922 18.8574 19.9145V20.8808C18.8574 21.103 19.0376 21.2832 19.2599 21.2832H27.8736C28.0959 21.2832 28.2761 21.103 28.2761 20.8808V19.9145C28.2761 19.6922 28.0959 19.512 27.8736 19.512Z" fill="#F55B4B"/>
<path d="M27.8736 22.6654H19.2599C19.0376 22.6654 18.8574 22.8456 18.8574 23.0678V24.0341C18.8574 24.2564 19.0376 24.4366 19.2599 24.4366H27.8736C28.0959 24.4366 28.2761 24.2564 28.2761 24.0341V23.0678C28.2761 22.8456 28.0959 22.6654 27.8736 22.6654Z" fill="#F55B4B"/>
<path d="M27.8736 25.8176H19.2599C19.0376 25.8176 18.8574 25.9978 18.8574 26.2201V27.1864C18.8574 27.4086 19.0376 27.5888 19.2599 27.5888H27.8736C28.0959 27.5888 28.2761 27.4086 28.2761 27.1864V26.2201C28.2761 25.9978 28.0959 25.8176 27.8736 25.8176Z" fill="#F55B4B"/>
<path d="M27.8736 28.9711H19.2599C19.0376 28.9711 18.8574 29.1512 18.8574 29.3735V30.3398C18.8574 30.5621 19.0376 30.7423 19.2599 30.7423H27.8736C28.0959 30.7423 28.2761 30.5621 28.2761 30.3398V29.3735C28.2761 29.1512 28.0959 28.9711 27.8736 28.9711Z" fill="#F55B4B"/>
<path d="M27.8736 32.1233H19.2599C19.0376 32.1233 18.8574 32.3035 18.8574 32.5257V33.492C18.8574 33.7143 19.0376 33.8945 19.2599 33.8945H27.8736C28.0959 33.8945 28.2761 33.7143 28.2761 33.492V32.5257C28.2761 32.3035 28.0959 32.1233 27.8736 32.1233Z" fill="#F55B4B"/>
<path d="M27.8736 35.2755H19.2599C19.0376 35.2755 18.8574 35.4557 18.8574 35.678V36.6443C18.8574 36.8665 19.0376 37.0467 19.2599 37.0467H27.8736C28.0959 37.0467 28.2761 36.8665 28.2761 36.6443V35.678C28.2761 35.4557 28.0959 35.2755 27.8736 35.2755Z" fill="#F55B4B"/>
<path d="M27.8736 38.4289H19.2599C19.0376 38.4289 18.8574 38.6091 18.8574 38.8313V39.7976C18.8574 40.0199 19.0376 40.2001 19.2599 40.2001H27.8736C28.0959 40.2001 28.2761 40.0199 28.2761 39.7976V38.8313C28.2761 38.6091 28.0959 38.4289 27.8736 38.4289Z" fill="#F55B4B"/>
<path d="M29.6887 20.5187C29.6887 20.2574 29.4771 20.0457 29.2162 20.0457C28.9552 20.0457 28.7437 20.2574 28.7437 20.5187V22.6531C28.7437 22.9144 28.9552 23.1262 29.2162 23.1262C29.4771 23.1262 29.6887 22.9144 29.6887 22.6531V20.5187Z" fill="#F55B4B"/>
<path d="M29.6887 37.0581C29.6887 36.7969 29.4771 36.5851 29.2162 36.5851C28.9552 36.5851 28.7437 36.7969 28.7437 37.0581V39.1925C28.7437 39.4538 28.9552 39.6656 29.2162 39.6656C29.4771 39.6656 29.6887 39.4538 29.6887 39.1925V37.0581Z" fill="#F55B4B"/>
<path d="M57.7103 43.0846H67.1548C67.6216 43.0846 68 42.7062 68 42.2394V17.4103C68 16.9435 67.6216 16.5651 67.1548 16.5651H57.7103C57.2435 16.5651 56.8651 16.9435 56.8651 17.4103V42.2394C56.8651 42.7062 57.2435 43.0846 57.7103 43.0846Z" fill="#FC715A"/>
<path d="M58.1251 21.2834H66.7389C66.9612 21.2834 67.1414 21.1033 67.1414 20.881V19.9147C67.1414 19.6924 66.9612 19.5123 66.7389 19.5123H58.1251C57.9029 19.5123 57.7227 19.6924 57.7227 19.9147V20.881C57.7227 21.1033 57.9029 21.2834 58.1251 21.2834Z" fill="#F55B4B"/>
<path d="M58.1251 24.4357H66.7389C66.9612 24.4357 67.1414 24.2555 67.1414 24.0332V23.0669C67.1414 22.8447 66.9612 22.6645 66.7389 22.6645H58.1251C57.9029 22.6645 57.7227 22.8447 57.7227 23.0669V24.0332C57.7227 24.2555 57.9029 24.4357 58.1251 24.4357Z" fill="#F55B4B"/>
<path d="M58.1251 27.5891H66.7389C66.9612 27.5891 67.1414 27.4089 67.1414 27.1866V26.2203C67.1414 25.998 66.9612 25.8179 66.7389 25.8179H58.1251C57.9029 25.8179 57.7227 25.998 57.7227 26.2203V27.1866C57.7227 27.4089 57.9029 27.5891 58.1251 27.5891Z" fill="#F55B4B"/>
<path d="M58.1251 30.7413H66.7389C66.9612 30.7413 67.1414 30.5612 67.1414 30.3389V29.3726C67.1414 29.1503 66.9612 28.9702 66.7389 28.9702H58.1251C57.9029 28.9702 57.7227 29.1503 57.7227 29.3726V30.3389C57.7227 30.5612 57.9029 30.7413 58.1251 30.7413Z" fill="#F55B4B"/>
<path d="M58.1251 33.8947H66.7389C66.9612 33.8947 67.1414 33.7145 67.1414 33.4923V32.526C67.1414 32.3037 66.9612 32.1235 66.7389 32.1235H58.1251C57.9029 32.1235 57.7227 32.3037 57.7227 32.526V33.4923C57.7227 33.7145 57.9029 33.8947 58.1251 33.8947Z" fill="#F55B4B"/>
<path d="M58.1251 37.0481H66.7389C66.9612 37.0481 67.1414 36.8679 67.1414 36.6457V35.6794C67.1414 35.4571 66.9612 35.2769 66.7389 35.2769H58.1251C57.9029 35.2769 57.7227 35.4571 57.7227 35.6794V36.6457C57.7227 36.8679 57.9029 37.0481 58.1251 37.0481Z" fill="#F55B4B"/>
<path d="M58.1251 40.2003H66.7389C66.9612 40.2003 67.1414 40.0201 67.1414 39.7979V38.8316C67.1414 38.6093 66.9612 38.4291 66.7389 38.4291H58.1251C57.9029 38.4291 57.7227 38.6093 57.7227 38.8316V39.7979C57.7227 40.0201 57.9029 40.2003 58.1251 40.2003Z" fill="#F55B4B"/>
<path d="M56.3101 22.6542C56.3101 22.9155 56.5217 23.1273 56.7826 23.1273C57.0436 23.1273 57.2551 22.9155 57.2551 22.6542V20.5198C57.2551 20.2585 57.0436 20.0467 56.7826 20.0467C56.5217 20.0467 56.3101 20.2585 56.3101 20.5198V22.6542Z" fill="#F55B4B"/>
<path d="M56.3101 39.1936C56.3101 39.4549 56.5217 39.6667 56.7826 39.6667C57.0436 39.6667 57.2551 39.4549 57.2551 39.1936V37.0592C57.2551 36.798 57.0436 36.5862 56.7826 36.5862C56.5217 36.5862 56.3101 36.798 56.3101 37.0592V39.1936Z" fill="#F55B4B"/>
<path d="M42.1463 32.2757H31.9418C31.7685 32.2757 31.6279 32.4162 31.6279 32.5896V42.794C31.6279 42.9674 31.7685 43.1079 31.9418 43.1079H42.1463C42.3196 43.1079 42.4602 42.9674 42.4602 42.794V32.5896C42.4602 32.4162 42.3196 32.2757 42.1463 32.2757Z" fill="#9E4830"/>
<path d="M34.2008 42.7158C34.1817 42.7158 34.1628 42.7121 34.1452 42.7047C34.1275 42.6974 34.1116 42.6866 34.0981 42.6731C34.0847 42.6595 34.074 42.6435 34.0668 42.6258C34.0596 42.6081 34.056 42.5892 34.0562 42.5701V32.9463C34.0562 32.908 34.0714 32.8712 34.0985 32.8441C34.1256 32.8169 34.1624 32.8017 34.2008 32.8017C34.2391 32.8017 34.2759 32.8169 34.303 32.8441C34.3301 32.8712 34.3454 32.908 34.3454 32.9463V42.5701C34.3454 42.6086 34.3302 42.6455 34.3031 42.6728C34.276 42.7 34.2392 42.7155 34.2008 42.7158Z" fill="#843928"/>
<path d="M35.6131 42.7158C35.5747 42.7155 35.5379 42.7 35.5108 42.6728C35.4837 42.6455 35.4685 42.6086 35.4685 42.5701V32.9463C35.4685 32.908 35.4837 32.8712 35.5109 32.8441C35.538 32.8169 35.5748 32.8017 35.6131 32.8017C35.6515 32.8017 35.6882 32.8169 35.7154 32.8441C35.7425 32.8712 35.7577 32.908 35.7577 32.9463V42.5701C35.7579 42.5892 35.7542 42.6081 35.747 42.6258C35.7398 42.6435 35.7292 42.6595 35.7158 42.6731C35.7023 42.6866 35.6863 42.6974 35.6687 42.7047C35.6511 42.7121 35.6322 42.7158 35.6131 42.7158Z" fill="#843928"/>
<path d="M37.0267 42.7157C36.988 42.7157 36.9509 42.7004 36.9236 42.6731C36.8963 42.6457 36.8809 42.6087 36.8809 42.57V32.9462C36.8792 32.9261 36.8816 32.9058 36.8881 32.8867C36.8946 32.8675 36.905 32.8499 36.9186 32.835C36.9323 32.8201 36.9489 32.8082 36.9674 32.8001C36.9859 32.7919 37.0059 32.7877 37.0261 32.7877C37.0463 32.7877 37.0663 32.7919 37.0848 32.8001C37.1033 32.8082 37.1199 32.8201 37.1336 32.835C37.1472 32.8499 37.1576 32.8675 37.1641 32.8867C37.1706 32.9058 37.173 32.9261 37.1713 32.9462V42.57C37.1713 42.6085 37.1561 42.6454 37.129 42.6727C37.1019 42.7 37.0651 42.7154 37.0267 42.7157Z" fill="#843928"/>
<path d="M38.4393 42.7158C38.4008 42.7155 38.3641 42.7 38.337 42.6728C38.3099 42.6455 38.2947 42.6086 38.2947 42.5701V32.9463C38.2947 32.908 38.3099 32.8712 38.337 32.8441C38.3642 32.8169 38.4009 32.8017 38.4393 32.8017C38.4776 32.8017 38.5144 32.8169 38.5415 32.8441C38.5687 32.8712 38.5839 32.908 38.5839 32.9463V42.5701C38.5839 42.6086 38.5687 42.6455 38.5416 42.6728C38.5145 42.7 38.4777 42.7155 38.4393 42.7158Z" fill="#843928"/>
<path d="M39.8517 42.7157C39.8133 42.7154 39.7765 42.7 39.7494 42.6727C39.7223 42.6454 39.7071 42.6085 39.7071 42.57V32.9462C39.7053 32.9261 39.7078 32.9058 39.7143 32.8867C39.7208 32.8675 39.7312 32.8499 39.7448 32.835C39.7585 32.8201 39.7751 32.8082 39.7936 32.8001C39.8121 32.7919 39.8321 32.7877 39.8523 32.7877C39.8725 32.7877 39.8925 32.7919 39.911 32.8001C39.9295 32.8082 39.9461 32.8201 39.9597 32.835C39.9734 32.8499 39.9838 32.8675 39.9903 32.8867C39.9968 32.9058 39.9992 32.9261 39.9974 32.9462V42.57C39.9974 42.6087 39.9821 42.6457 39.9548 42.6731C39.9274 42.7004 39.8904 42.7157 39.8517 42.7157Z" fill="#843928"/>
<path d="M40.9582 42.6389L41.9062 41.6909L33.0942 32.8788L32.1461 33.8269L40.9582 42.6389Z" fill="#CC866D"/>
<path d="M41.907 33.8257L40.959 32.8776L32.1469 41.6897L33.0949 42.6377L41.907 33.8257Z" fill="#A56C5D"/>
<path d="M32.9686 33.6162H31.6279V41.767H32.9686V33.6162Z" fill="#B76E51"/>
<path d="M42.4601 33.6162H41.1194V41.767H42.4601V33.6162Z" fill="#B76E51"/>
<path d="M42.457 32.5896V33.6164H31.6282V32.5896C31.6282 32.5063 31.6612 32.4265 31.7201 32.3676C31.779 32.3088 31.8588 32.2757 31.942 32.2757L42.1432 32.2757C42.2264 32.2757 42.3062 32.3088 42.3651 32.3676C42.424 32.4265 42.457 32.5063 42.457 32.5896Z" fill="#A65C3B"/>
<path d="M42.4602 41.7674V42.7942C42.4602 42.8354 42.4521 42.8763 42.4363 42.9143C42.4205 42.9524 42.3974 42.987 42.3683 43.0162C42.3391 43.0453 42.3045 43.0684 42.2664 43.0842C42.2284 43.1 42.1875 43.1081 42.1463 43.1081H31.9452C31.904 43.1081 31.8632 43.1 31.8251 43.0842C31.787 43.0684 31.7524 43.0453 31.7233 43.0162C31.6941 42.987 31.671 42.9524 31.6552 42.9143C31.6395 42.8763 31.6313 42.8354 31.6313 42.7942V41.7674H42.4602Z" fill="#A65C3B"/>
<path d="M53.76 32.2757H43.5556C43.3822 32.2757 43.2417 32.4162 43.2417 32.5896V42.794C43.2417 42.9674 43.3822 43.1079 43.5556 43.1079H53.76C53.9334 43.1079 54.0739 42.9674 54.0739 42.794V32.5896C54.0739 32.4162 53.9334 32.2757 53.76 32.2757Z" fill="#9E4830"/>
<path d="M45.8131 42.7157C45.7747 42.7154 45.7379 42.7 45.7108 42.6727C45.6837 42.6454 45.6685 42.6085 45.6685 42.57V32.9462C45.6668 32.9261 45.6692 32.9058 45.6757 32.8867C45.6822 32.8675 45.6926 32.8499 45.7062 32.835C45.7199 32.8201 45.7365 32.8082 45.755 32.8001C45.7735 32.7919 45.7935 32.7877 45.8137 32.7877C45.8339 32.7877 45.8539 32.7919 45.8724 32.8001C45.8909 32.8082 45.9075 32.8201 45.9212 32.835C45.9348 32.8499 45.9452 32.8675 45.9517 32.8867C45.9582 32.9058 45.9606 32.9261 45.9589 32.9462V42.57C45.9589 42.6087 45.9435 42.6457 45.9162 42.6731C45.8889 42.7004 45.8518 42.7157 45.8131 42.7157Z" fill="#843928"/>
<path d="M47.2266 42.7158C47.2076 42.7158 47.1887 42.7121 47.171 42.7047C47.1534 42.6974 47.1374 42.6866 47.124 42.6731C47.1105 42.6595 47.0999 42.6435 47.0927 42.6258C47.0855 42.6081 47.0819 42.5892 47.082 42.5701V32.9463C47.082 32.9273 47.0858 32.9085 47.093 32.891C47.1003 32.8734 47.111 32.8575 47.1244 32.8441C47.1378 32.8306 47.1538 32.82 47.1713 32.8127C47.1888 32.8054 47.2077 32.8017 47.2266 32.8017C47.2456 32.8017 47.2644 32.8054 47.282 32.8127C47.2995 32.82 47.3155 32.8306 47.3289 32.8441C47.3423 32.8575 47.353 32.8734 47.3602 32.891C47.3675 32.9085 47.3713 32.9273 47.3713 32.9463V42.5701C47.3713 42.6086 47.3561 42.6455 47.329 42.6728C47.3019 42.7 47.2651 42.7155 47.2266 42.7158Z" fill="#843928"/>
<path d="M48.6392 42.7158C48.6008 42.7155 48.564 42.7 48.5369 42.6728C48.5098 42.6455 48.4946 42.6086 48.4946 42.5701V32.9463C48.4946 32.908 48.5099 32.8712 48.537 32.8441C48.5641 32.8169 48.6009 32.8017 48.6392 32.8017C48.6776 32.8017 48.7144 32.8169 48.7415 32.8441C48.7686 32.8712 48.7838 32.908 48.7838 32.9463V42.5701C48.784 42.5892 48.7804 42.6081 48.7732 42.6258C48.766 42.6435 48.7553 42.6595 48.7419 42.6731C48.7285 42.6866 48.7125 42.6974 48.6948 42.7047C48.6772 42.7121 48.6583 42.7158 48.6392 42.7158Z" fill="#843928"/>
<path d="M50.0528 42.7157C50.0141 42.7157 49.9771 42.7004 49.9497 42.6731C49.9224 42.6457 49.9071 42.6087 49.9071 42.57V32.9462C49.9053 32.9261 49.9077 32.9058 49.9142 32.8867C49.9207 32.8675 49.9311 32.8499 49.9448 32.835C49.9584 32.8201 49.975 32.8082 49.9935 32.8001C50.012 32.7919 50.032 32.7877 50.0522 32.7877C50.0724 32.7877 50.0924 32.7919 50.1109 32.8001C50.1294 32.8082 50.146 32.8201 50.1597 32.835C50.1733 32.8499 50.1837 32.8675 50.1902 32.8867C50.1967 32.9058 50.1992 32.9261 50.1974 32.9462V42.57C50.1974 42.6085 50.1822 42.6454 50.1551 42.6727C50.128 42.7 50.0912 42.7154 50.0528 42.7157Z" fill="#843928"/>
<path d="M51.4652 42.7158C51.4267 42.7155 51.3899 42.7 51.3628 42.6728C51.3358 42.6455 51.3206 42.6086 51.3206 42.5701V32.9463C51.3206 32.9273 51.3243 32.9085 51.3316 32.891C51.3388 32.8734 51.3495 32.8575 51.3629 32.8441C51.3763 32.8306 51.3923 32.82 51.4098 32.8127C51.4274 32.8054 51.4462 32.8017 51.4652 32.8017C51.4842 32.8017 51.503 32.8054 51.5205 32.8127C51.538 32.82 51.554 32.8306 51.5674 32.8441C51.5808 32.8575 51.5915 32.8734 51.5988 32.891C51.606 32.9085 51.6098 32.9273 51.6098 32.9463V42.5701C51.6098 42.6086 51.5946 42.6455 51.5675 42.6728C51.5404 42.7 51.5036 42.7155 51.4652 42.7158Z" fill="#843928"/>
<path d="M52.572 42.6378L53.52 41.6898L44.7079 32.8777L43.7599 33.8257L52.572 42.6378Z" fill="#CC866D"/>
<path d="M53.5193 33.8257L52.5713 32.8776L43.7592 41.6897L44.7072 42.6377L53.5193 33.8257Z" fill="#A56C5D"/>
<path d="M44.5824 33.6162H43.2417V41.767H44.5824V33.6162Z" fill="#B76E51"/>
<path d="M54.0739 33.6162H52.7332V41.767H54.0739V33.6162Z" fill="#B76E51"/>
<path d="M54.0703 32.5896V33.6164H43.2414V32.5896C43.2414 32.5063 43.2745 32.4265 43.3334 32.3676C43.3922 32.3088 43.4721 32.2757 43.5553 32.2757H53.7564C53.8397 32.2757 53.9195 32.3088 53.9784 32.3676C54.0372 32.4265 54.0703 32.5063 54.0703 32.5896Z" fill="#A65C3B"/>
<path d="M54.0737 41.7662V42.7931C54.0737 42.8343 54.0656 42.8751 54.0498 42.9132C54.0341 42.9513 54.0109 42.9859 53.9818 43.015C53.9527 43.0442 53.918 43.0673 53.88 43.0831C53.8419 43.0988 53.8011 43.107 53.7599 43.107H43.5587C43.5175 43.107 43.4767 43.0988 43.4386 43.0831C43.4005 43.0673 43.3659 43.0442 43.3368 43.015C43.3077 42.9859 43.2845 42.9513 43.2688 42.9132C43.253 42.8751 43.2449 42.8343 43.2449 42.7931V41.7662H54.0737Z" fill="#A65C3B"/>
<path d="M42.1463 21.4761H31.9418C31.7685 21.4761 31.6279 21.6167 31.6279 21.79V31.9945C31.6279 32.1678 31.7685 32.3084 31.9418 32.3084H42.1463C42.3196 32.3084 42.4602 32.1678 42.4602 31.9945V21.79C42.4602 21.6167 42.3196 21.4761 42.1463 21.4761Z" fill="#9E4830"/>
<path d="M34.2008 31.916C34.1624 31.916 34.1256 31.9007 34.0985 31.8736C34.0714 31.8465 34.0562 31.8097 34.0562 31.7714V22.1521C34.0562 22.1137 34.0714 22.0769 34.0985 22.0498C34.1256 22.0227 34.1624 22.0074 34.2008 22.0074C34.2391 22.0074 34.2759 22.0227 34.303 22.0498C34.3301 22.0769 34.3454 22.1137 34.3454 22.1521V31.777C34.3439 31.8143 34.328 31.8497 34.3011 31.8756C34.2741 31.9015 34.2382 31.916 34.2008 31.916Z" fill="#843928"/>
<path d="M35.6131 31.916C35.5748 31.916 35.538 31.9007 35.5109 31.8736C35.4837 31.8465 35.4685 31.8097 35.4685 31.7714V22.1521C35.4685 22.1137 35.4837 22.0769 35.5109 22.0498C35.538 22.0227 35.5748 22.0074 35.6131 22.0074C35.6515 22.0074 35.6882 22.0227 35.7154 22.0498C35.7425 22.0769 35.7577 22.1137 35.7577 22.1521V31.777C35.7563 31.8143 35.7404 31.8497 35.7134 31.8756C35.6865 31.9015 35.6505 31.916 35.6131 31.916Z" fill="#843928"/>
<path d="M37.0266 31.916C36.9881 31.916 36.9512 31.9008 36.9239 31.8737C36.8966 31.8466 36.8812 31.8098 36.8809 31.7714V22.1521C36.8841 22.1158 36.9007 22.082 36.9276 22.0574C36.9545 22.0328 36.9896 22.0191 37.026 22.0191C37.0625 22.0191 37.0976 22.0328 37.1245 22.0574C37.1513 22.082 37.168 22.1158 37.1712 22.1521V31.777C37.1698 31.8143 37.1539 31.8497 37.1269 31.8756C37.0999 31.9015 37.064 31.916 37.0266 31.916Z" fill="#843928"/>
<path d="M38.4393 31.916C38.4009 31.916 38.3642 31.9007 38.337 31.8736C38.3099 31.8465 38.2947 31.8097 38.2947 31.7714V22.1521C38.2947 22.1137 38.3099 22.0769 38.337 22.0498C38.3642 22.0227 38.4009 22.0074 38.4393 22.0074C38.4776 22.0074 38.5144 22.0227 38.5415 22.0498C38.5687 22.0769 38.5839 22.1137 38.5839 22.1521V31.777C38.5824 31.8143 38.5666 31.8497 38.5396 31.8756C38.5126 31.9015 38.4767 31.916 38.4393 31.916Z" fill="#843928"/>
<path d="M39.8516 31.916C39.8133 31.916 39.7765 31.9007 39.7494 31.8736C39.7223 31.8465 39.707 31.8097 39.707 31.7714V22.1521C39.7102 22.1158 39.7269 22.082 39.7538 22.0574C39.7806 22.0328 39.8158 22.0191 39.8522 22.0191C39.8886 22.0191 39.9238 22.0328 39.9506 22.0574C39.9775 22.082 39.9942 22.1158 39.9974 22.1521V31.777C39.9956 31.8144 39.9795 31.8498 39.9524 31.8757C39.9252 31.9016 39.8892 31.916 39.8516 31.916Z" fill="#843928"/>
<path d="M40.958 31.8394L41.906 30.8914L33.0939 22.0793L32.1459 23.0273L40.958 31.8394Z" fill="#CC866D"/>
<path d="M41.9065 23.0279L40.9585 22.0798L32.1464 30.8919L33.0944 31.8399L41.9065 23.0279Z" fill="#A56C5D"/>
<path d="M32.9686 22.8167H31.6279V30.9674H32.9686V22.8167Z" fill="#B76E51"/>
<path d="M42.4601 22.8167H41.1194V30.9674H42.4601V22.8167Z" fill="#B76E51"/>
<path d="M42.4602 21.7912V22.818H31.628V21.7912C31.628 21.7079 31.661 21.6281 31.7199 21.5692C31.7788 21.5104 31.8586 21.4773 31.9419 21.4773H42.143C42.2262 21.4773 42.306 21.5104 42.3649 21.5692C42.4238 21.6281 42.4568 21.7079 42.4568 21.7912H42.4602Z" fill="#A65C3B"/>
<path d="M42.4602 30.9684V31.9953C42.4602 32.0785 42.4271 32.1584 42.3683 32.2172C42.3094 32.2761 42.2296 32.3092 42.1463 32.3092H31.9452C31.862 32.3092 31.7821 32.2761 31.7233 32.2172C31.6644 32.1584 31.6313 32.0785 31.6313 31.9953V30.9684H42.4602Z" fill="#A56C5D"/>
<path d="M53.76 21.4761H43.5556C43.3822 21.4761 43.2417 21.6167 43.2417 21.79V31.9945C43.2417 32.1678 43.3822 32.3084 43.5556 32.3084H53.76C53.9334 32.3084 54.0739 32.1678 54.0739 31.9945V21.79C54.0739 21.6167 53.9334 21.4761 53.76 21.4761Z" fill="#9E4830"/>
<path d="M45.8131 31.916C45.7747 31.916 45.7379 31.9007 45.7108 31.8736C45.6837 31.8465 45.6685 31.8097 45.6685 31.7714V22.1521C45.6716 22.1158 45.6883 22.082 45.7152 22.0574C45.7421 22.0328 45.7772 22.0191 45.8136 22.0191C45.8501 22.0191 45.8852 22.0328 45.9121 22.0574C45.9389 22.082 45.9556 22.1158 45.9588 22.1521V31.777C45.9571 31.8144 45.941 31.8498 45.9138 31.8757C45.8867 31.9016 45.8506 31.916 45.8131 31.916Z" fill="#843928"/>
<path d="M47.2266 31.916C47.1883 31.916 47.1515 31.9007 47.1244 31.8736C47.0973 31.8465 47.082 31.8097 47.082 31.7714V22.1521C47.082 22.1137 47.0973 22.0769 47.1244 22.0498C47.1515 22.0227 47.1883 22.0074 47.2266 22.0074C47.265 22.0074 47.3018 22.0227 47.3289 22.0498C47.356 22.0769 47.3712 22.1137 47.3712 22.1521V31.777C47.3698 31.8143 47.3539 31.8497 47.327 31.8756C47.3 31.9015 47.264 31.916 47.2266 31.916Z" fill="#843928"/>
<path d="M48.6392 31.916C48.6009 31.916 48.5641 31.9007 48.537 31.8736C48.5099 31.8465 48.4946 31.8097 48.4946 31.7714V22.1521C48.4946 22.1137 48.5099 22.0769 48.537 22.0498C48.5641 22.0227 48.6009 22.0074 48.6392 22.0074C48.6776 22.0074 48.7144 22.0227 48.7415 22.0498C48.7686 22.0769 48.7838 22.1137 48.7838 22.1521V31.777C48.7824 31.8143 48.7665 31.8497 48.7396 31.8756C48.7126 31.9015 48.6766 31.916 48.6392 31.916Z" fill="#843928"/>
<path d="M50.0527 31.916C50.0143 31.916 49.9774 31.9008 49.9501 31.8737C49.9228 31.8466 49.9073 31.8098 49.907 31.7714V22.1521C49.9102 22.1158 49.9269 22.082 49.9537 22.0574C49.9806 22.0328 50.0157 22.0191 50.0522 22.0191C50.0886 22.0191 50.1237 22.0328 50.1506 22.0574C50.1775 22.082 50.1941 22.1158 50.1973 22.1521V31.777C50.1959 31.8143 50.18 31.8497 50.153 31.8756C50.1261 31.9015 50.0901 31.916 50.0527 31.916Z" fill="#843928"/>
<path d="M51.4652 31.916C51.4268 31.916 51.39 31.9007 51.3629 31.8736C51.3358 31.8465 51.3206 31.8097 51.3206 31.7714V22.1521C51.3206 22.1137 51.3358 22.0769 51.3629 22.0498C51.39 22.0227 51.4268 22.0074 51.4652 22.0074C51.5035 22.0074 51.5403 22.0227 51.5674 22.0498C51.5945 22.0769 51.6098 22.1137 51.6098 22.1521V31.777C51.6083 31.8143 51.5925 31.8497 51.5655 31.8756C51.5385 31.9015 51.5026 31.916 51.4652 31.916Z" fill="#843928"/>
<path d="M52.5715 31.8382L53.5195 30.8902L44.7074 22.0781L43.7594 23.0261L52.5715 31.8382Z" fill="#CC866D"/>
<path d="M53.5188 23.0279L52.5708 22.0798L43.7587 30.8919L44.7067 31.8399L53.5188 23.0279Z" fill="#A56C5D"/>
<path d="M44.5824 22.8167H43.2417V30.9674H44.5824V22.8167Z" fill="#B76E51"/>
<path d="M54.0739 22.8167H52.7332V30.9674H54.0739V22.8167Z" fill="#B76E51"/>
<path d="M54.0737 21.7912V22.818H43.2415V21.7912C43.2415 21.7079 43.2746 21.6281 43.3334 21.5692C43.3923 21.5104 43.4721 21.4773 43.5554 21.4773H53.7565C53.798 21.4769 53.8392 21.4847 53.8776 21.5002C53.9161 21.5158 53.9511 21.5389 53.9806 21.568C54.0101 21.5972 54.0335 21.632 54.0495 21.6703C54.0655 21.7086 54.0737 21.7497 54.0737 21.7912Z" fill="#A65C3B"/>
<path d="M54.0737 30.9673V31.9941C54.0737 32.0774 54.0407 32.1572 53.9818 32.2161C53.9229 32.2749 53.8431 32.308 53.7598 32.308H43.5587C43.4755 32.308 43.3957 32.2749 43.3368 32.2161C43.2779 32.1572 43.2449 32.0774 43.2449 31.9941V30.9673H54.0737Z" fill="#A56C5D"/>
</svg>
