<svg width="86" height="62" viewBox="0 0 86 62" fill="none" xmlns="http://www.w3.org/2000/svg">
<rect width="84" height="62" rx="12" fill="#F55B4B"/>
<path d="M64.6771 31.9619V46.2049C64.6771 46.3199 64.6314 46.4302 64.5501 46.5116C64.4687 46.5929 64.3584 46.6386 64.2434 46.6386H49.6566C49.5416 46.6386 49.4313 46.5929 49.3499 46.5116C49.2686 46.4302 49.2229 46.3199 49.2229 46.2049V31.8113L56.0244 29.235H57.4763L64.6771 31.9619Z" fill="#3586CB"/>
<path d="M64.677 31.9619V33.4502L59.0019 31.3057H57.549L52.2914 33.2975C51.8388 33.4692 51.4491 33.7745 51.174 34.1729C50.899 34.5713 50.7517 35.0439 50.7515 35.528V46.6386H49.6596C49.5447 46.6386 49.4345 46.593 49.3532 46.5119C49.2719 46.4308 49.2261 46.3207 49.2258 46.2059V31.8113L56.0273 29.235H57.4762L64.677 31.9619Z" fill="#366FCA"/>
<path d="M67.3897 31.577L57.3184 27.6014C57.2126 27.56 57.1003 27.5378 56.9868 27.5357H56.9271C56.8146 27.5384 56.7034 27.5606 56.5985 27.6014L46.5262 31.577C46.29 31.6708 46.1007 31.8547 46 32.0881C45.8993 32.3215 45.8955 32.5853 45.9893 32.8216C46.0832 33.0578 46.2671 33.2471 46.5005 33.3478C46.7339 33.4485 46.9977 33.4523 47.234 33.3585L56.9625 29.5164L66.691 33.3585C66.808 33.4046 66.9329 33.4272 67.0586 33.4251C67.1844 33.423 67.3084 33.3961 67.4238 33.346C67.5391 33.2959 67.6435 33.2236 67.7309 33.1332C67.8183 33.0428 67.887 32.936 67.9331 32.8191C67.9793 32.7021 68.0019 32.5772 67.9998 32.4514C67.9976 32.3257 67.9708 32.2016 67.9207 32.0863C67.8706 31.971 67.7983 31.8666 67.7078 31.7792C67.6174 31.6918 67.5107 31.6231 67.3937 31.577H67.3897Z" fill="white"/>
<path d="M49.2229 20.4953V46.6385H22.473C22.3712 46.639 22.2702 46.6194 22.176 46.5808C22.0817 46.5421 21.996 46.4852 21.9239 46.4133C21.8517 46.3415 21.7944 46.256 21.7554 46.1619C21.7164 46.0678 21.6964 45.9669 21.6965 45.865V20.2253L33.8102 15.634H36.3975L49.2229 20.4953Z" fill="#3586CB"/>
<path d="M45.0816 25.0765H25.8389V31.3471H45.0816V25.0765Z" fill="white"/>
<path d="M49.2229 20.4953V23.1463L39.1122 19.3174H36.5269L27.1563 22.8662C26.35 23.1715 25.6557 23.7149 25.1657 24.4244C24.6757 25.1338 24.4133 25.9755 24.4133 26.8377V46.6385H22.473C22.3711 46.6392 22.2701 46.6197 22.1758 46.5811C22.0815 46.5425 21.9958 46.4856 21.9236 46.4136C21.8514 46.3417 21.7941 46.2562 21.7552 46.1621C21.7162 46.0679 21.6963 45.9669 21.6965 45.865V20.2253L33.8102 15.634H36.3975L49.2229 20.4953Z" fill="#366FCA"/>
<path d="M52.8334 22.8886C52.7373 23.1423 52.5663 23.3609 52.3431 23.5151C52.1199 23.6693 51.855 23.752 51.5837 23.752C51.422 23.7523 51.2616 23.7228 51.1105 23.6651L49.5798 23.0847L35.4602 17.7382L22.0523 22.8128L19.8088 23.6631C19.6577 23.7209 19.4973 23.7504 19.3356 23.75C19.023 23.7498 18.7204 23.64 18.4804 23.4397C18.2403 23.2395 18.0781 22.9614 18.0218 22.6539C17.9656 22.3464 18.0189 22.029 18.1724 21.7567C18.326 21.4844 18.5702 21.2746 18.8624 21.1637L22.0523 19.9504L34.166 15.3632L34.898 15.0862C35.0772 15.0181 35.269 14.9898 35.4602 15.0032C35.6513 14.9901 35.8431 15.0183 36.0223 15.0862L36.7533 15.3632L49.5798 20.2163L52.0569 21.1546C52.2224 21.2166 52.3739 21.3108 52.5027 21.4318C52.6315 21.5528 52.735 21.6982 52.8072 21.8594C52.8795 22.0207 52.919 22.1947 52.9234 22.3714C52.9279 22.5481 52.8973 22.7238 52.8334 22.8886Z" fill="white"/>
<path d="M27.6718 26.4576C27.4532 26.4576 27.2436 26.3708 27.0891 26.2163C26.9346 26.0617 26.8477 25.8521 26.8477 25.6336V25.0775H25.8367V27.1603H45.0804V26.4627L27.6718 26.4576Z" fill="#D8D8D8"/>
<path d="M26.8477 27.7123V27.1602H25.8367V29.238H45.0804V28.5403H27.6718C27.5632 28.5403 27.4557 28.5189 27.3555 28.4772C27.2552 28.4356 27.1642 28.3745 27.0877 28.2975C27.0111 28.2206 26.9505 28.1293 26.9093 28.0288C26.8681 27.9284 26.8472 27.8208 26.8477 27.7123Z" fill="#D8D8D8"/>
<path d="M26.8477 29.789V29.2319H25.8367V31.3106H45.0804V30.613H27.6718C27.4532 30.613 27.2436 30.5262 27.0891 30.3716C26.9346 30.2171 26.8477 30.0075 26.8477 29.789Z" fill="#D8D8D8"/>
<path d="M45.0816 31.313H25.8389V46.6388H45.0816V31.313Z" fill="#32314B"/>
<path d="M45.0806 31.313V37.7121H31.5979C30.669 37.7121 29.7782 38.0811 29.1214 38.7379C28.4646 39.3947 28.0956 40.2855 28.0956 41.2144V46.6388H25.8389V31.313H45.0806Z" fill="#27273D"/>
<path d="M63.1078 36.9039H50.886V46.6385H63.1078V36.9039Z" fill="#32314B"/>
<path d="M63.1079 36.9039V40.9684H54.5441C53.9542 40.9684 53.3884 41.2027 52.9713 41.6199C52.5541 42.037 52.3198 42.6028 52.3198 43.1927V46.6374H50.884V36.9039H63.1079Z" fill="#27273D"/>
<path d="M39.0535 21.3802H31.8668C31.506 21.3802 31.2136 21.6727 31.2136 22.0334V23.2214C31.2136 23.5821 31.506 23.8746 31.8668 23.8746H39.0535C39.4142 23.8746 39.7066 23.5821 39.7066 23.2214V22.0334C39.7066 21.6727 39.4142 21.3802 39.0535 21.3802Z" fill="#F6D372"/>
<path d="M39.7056 23.1466V23.2174C39.7061 23.3033 39.6897 23.3885 39.6572 23.4681C39.6248 23.5477 39.5769 23.6201 39.5165 23.6811C39.456 23.7422 39.384 23.7907 39.3047 23.8239C39.2255 23.8571 39.1404 23.8743 39.0545 23.8746H31.8668C31.6935 23.8746 31.5274 23.8057 31.4049 23.6833C31.2824 23.5608 31.2136 23.3946 31.2136 23.2214V22.0334C31.2136 21.8602 31.2824 21.694 31.4049 21.5716C31.5274 21.4491 31.6935 21.3802 31.8668 21.3802H32.2348V22.4924C32.2347 22.5782 32.2514 22.6632 32.2841 22.7425C32.3168 22.8217 32.3648 22.8938 32.4254 22.9546C32.4859 23.0153 32.5579 23.0635 32.6371 23.0965C32.7163 23.1294 32.8012 23.1465 32.8869 23.1466H39.7056Z" fill="#F7BB38"/>
</svg>
