<svg width="86" height="62" viewBox="0 0 86 62" fill="none" xmlns="http://www.w3.org/2000/svg">
<g clip-path="url(#clip0_64_446)">
<rect width="84" height="62" rx="12" fill="#F7BB38"/>
<path d="M74.7886 33.2928L75.206 44.1468L83.786 44.4654L83.6542 33.3807L74.7886 33.2928Z" fill="#989898"/>
<path d="M80.8748 33.2928L81.0066 44.1468L83.786 44.4654L83.7421 33.3807L80.8748 33.2928Z" fill="#878787"/>
<path d="M72.8223 38.4891C72.8223 38.4891 72.6136 37.1818 73.6572 36.9511C74.7009 36.7204 78.2274 36.2041 78.8206 37.5444C79.4138 38.8846 79.5127 41.2576 78.4471 41.6311C77.3814 42.0046 73.5693 42.7187 73.086 41.4553C72.6136 40.192 72.8223 38.4891 72.8223 38.4891Z" fill="#B3B3B3"/>
<path d="M69.7351 39.1044C69.7351 39.1044 74.9314 37.5993 75.8982 38.3793C76.8759 39.1593 76.7881 40.7852 75.8543 41.1038C74.9205 41.4224 70.1855 42.3122 70.1196 42.1035C70.0537 41.8838 69.7351 39.1044 69.7351 39.1044Z" fill="#989898"/>
<path d="M66.6482 38.61C66.6482 38.61 64.5389 38.9505 64.451 40.0711C64.3521 41.1916 64.7696 43.268 66.2746 43.268C67.7797 43.268 71.4929 43.6964 71.5149 42.2353C71.5479 40.7852 71.6577 39.4229 70.669 38.9066C69.6912 38.4012 68.318 38.2474 66.6482 38.61Z" fill="#B3B3B3"/>
<path d="M65.253 36.5336C65.253 36.5336 64.9124 39.8404 65.6595 40.2029C66.4065 40.5655 68.9223 40.6533 69.3178 39.6317C69.7133 38.61 69.3947 35.4131 69.3947 35.4131L65.253 36.5336Z" fill="#989898"/>
<path d="M43.9514 21.2852C41.5784 21.8565 41.7872 21.4061 40.1063 22.6585C38.4255 23.9109 37.8542 29.0852 38.4365 33.106C43.4021 32.1393 48.0271 31.2604 48.0052 31.0297C47.9832 30.799 47.8514 21.6148 47.8514 21.6148C47.8514 21.6148 45.775 21.1973 43.9514 21.2852Z" fill="#B3B3B3"/>
<path d="M61.7375 35.3252C61.7375 35.3252 61.6606 37.6322 62.902 37.6981C64.1434 37.764 70.0428 36.6874 70.5701 35.5779C71.0975 34.4683 70.669 32.1613 70.669 32.1613L61.7375 35.3252Z" fill="#B3B3B3"/>
<path d="M49.6311 38.8187C49.6311 38.8187 51.0593 39.6536 55.4756 38.1706C59.8919 36.6875 70.6141 34.3914 74.0527 32.0954C77.4913 29.7993 76.7332 24.9546 76.6454 24.2185C65.0003 27.1847 51.301 31.1945 51.301 31.1945L49.6311 38.8187Z" fill="#989898"/>
<path d="M42.5568 27.0919C44.2728 22.0744 48.8099 19.0828 52.6908 20.41C56.5716 21.7373 58.3266 26.8808 56.6106 31.8983C54.8946 36.9159 50.3575 39.9074 46.4766 38.5802C42.5958 37.2529 40.8408 32.1095 42.5568 27.0919Z" fill="#5D5D5D"/>
<path d="M43.7645 27.5058C45.186 23.3494 48.9445 20.8713 52.1595 21.9708C55.3744 23.0703 56.8282 27.331 55.4067 31.4874C53.9852 35.6439 50.2267 38.122 47.0118 37.0225C43.7969 35.923 42.343 31.6622 43.7645 27.5058Z" fill="#989898"/>
<path d="M47.6865 22.4388C47.9941 22.4388 48.2797 22.7464 48.3237 23.1199C48.3676 23.4934 48.1699 23.801 47.8623 23.801C47.5547 23.801 47.269 23.4934 47.2251 23.1199C47.1702 22.7354 47.3789 22.4388 47.6865 22.4388Z" fill="#5D5D5D"/>
<path d="M48.9279 24.3613C51.2129 24.3613 53.3661 26.6574 53.7287 29.5027C54.0912 32.3481 52.5312 34.6441 50.2462 34.6441C47.9611 34.6441 45.8079 32.3481 45.4453 29.5027C45.0718 26.6574 46.6428 24.3613 48.9279 24.3613Z" fill="#5D5D5D"/>
<path d="M41.095 21.9554C45.3904 21.2413 52.8389 23.5264 54.5966 33.6334C54.5307 33.2928 78.5128 25.8993 78.5128 25.8993C78.5128 25.8993 78.5348 16.4185 70.0537 13.5402C60.2433 15.4298 43.0065 20.7799 41.095 21.9554Z" fill="#CCCCCC"/>
<path d="M64.4511 14.8695C60.3644 15.7813 55.8382 17.0117 51.8394 18.2092C53.7619 18.6706 56.2337 19.89 57.7278 23.0979C60.4413 28.9314 60.2655 29.3599 60.2655 29.3599L72.5257 25.5588C71.6908 19.7362 68.5379 16.023 64.4511 14.8695Z" fill="#B3B3B3"/>
<path d="M49.2466 26.8441C50.4331 26.8441 51.5427 28.0306 51.7294 29.4917C51.9162 30.9528 51.1142 32.1393 49.9278 32.1393C48.7413 32.1393 47.6317 30.9528 47.445 29.4917C47.2582 28.0306 48.0602 26.8441 49.2466 26.8441Z" fill="#1A1A1A"/>
<path d="M48.6862 27.4593C49.1256 27.4593 49.5431 27.8987 49.62 28.448C49.6859 28.9973 49.3893 29.4367 48.9498 29.4367C48.5104 29.4367 48.0929 28.9973 48.016 28.448C47.9391 27.8987 48.2358 27.4593 48.6862 27.4593Z" fill="#CCCCCC"/>
<path d="M44.4458 29.6565C44.7534 29.6565 45.039 29.9641 45.083 30.3376C45.1269 30.7111 44.9292 31.0187 44.6216 31.0187C44.3139 31.0187 44.0283 30.7111 43.9844 30.3376C43.9294 29.9531 44.1382 29.6565 44.4458 29.6565Z" fill="#5D5D5D"/>
<path d="M45.7422 32.6007C46.0498 32.6007 46.3354 32.9083 46.3793 33.2818C46.4233 33.6554 46.2255 33.963 45.9179 33.963C45.6103 33.963 45.3247 33.6554 45.2808 33.2818C45.2258 32.8973 45.4345 32.6007 45.7422 32.6007Z" fill="#5D5D5D"/>
<path d="M47.7854 34.4573C48.093 34.4573 48.3786 34.7649 48.4226 35.1385C48.4665 35.512 48.2687 35.8196 47.9611 35.8196C47.6535 35.8196 47.3679 35.512 47.324 35.1385C47.269 34.7649 47.4778 34.4573 47.7854 34.4573Z" fill="#5D5D5D"/>
<path d="M50.7407 35.2593C51.0483 35.2593 51.3339 35.5669 51.3779 35.9404C51.4218 36.3139 51.2241 36.6215 50.9165 36.6215C50.6089 36.6215 50.3232 36.3139 50.2793 35.9404C50.2244 35.5669 50.4331 35.2593 50.7407 35.2593Z" fill="#5D5D5D"/>
<path d="M53.3772 33.941C53.6848 33.941 53.9704 34.2486 54.0143 34.6221C54.0583 34.9956 53.8605 35.3032 53.5529 35.3032C53.2453 35.3032 52.9597 34.9956 52.9158 34.6221C52.8718 34.2486 53.0805 33.941 53.3772 33.941Z" fill="#5D5D5D"/>
<path d="M44.4568 26.2509C44.7644 26.2509 45.05 26.5585 45.0939 26.932C45.1379 27.3055 44.9401 27.6131 44.6325 27.6131C44.3249 27.6131 44.0393 27.3055 43.9953 26.932C43.9514 26.5585 44.1601 26.2509 44.4568 26.2509Z" fill="#5D5D5D"/>
<path d="M45.7422 23.6362C46.0498 23.6362 46.3354 23.9438 46.3793 24.3174C46.4233 24.6909 46.2255 24.9985 45.9179 24.9985C45.6103 24.9985 45.3247 24.6909 45.2808 24.3174C45.2368 23.9438 45.4346 23.6362 45.7422 23.6362Z" fill="#5D5D5D"/>
</g>
<defs>
<clipPath id="clip0_64_446">
<rect width="86" height="62" fill="white"/>
</clipPath>
</defs>
</svg>
