<svg width="76" height="62" viewBox="0 0 76 62" fill="none" xmlns="http://www.w3.org/2000/svg">
<rect x="-10" width="84" height="62" rx="12" fill="#FCC8BC"/>
<path d="M48.8123 12.391V41.9538C48.8123 42.1922 48.7176 42.4208 48.549 42.5894C48.3804 42.758 48.1518 42.8527 47.9134 42.8527H17.6386C17.4001 42.8527 17.1713 42.758 17.0026 42.5895C16.8339 42.4209 16.7389 42.1923 16.7386 41.9538V12.0765L30.8552 6.7309H33.8654L48.8123 12.391Z" fill="#F55B4B"/>
<path d="M43.9857 17.7303H21.5653V29.8404H43.9857V17.7303Z" fill="white"/>
<path d="M46.5691 25.8682C47.0489 25.8682 47.4379 25.4792 47.4379 24.9994C47.4379 24.5196 47.0489 24.1306 46.5691 24.1306C46.0893 24.1306 45.7003 24.5196 45.7003 24.9994C45.7003 25.4792 46.0893 25.8682 46.5691 25.8682Z" fill="#FC715A"/>
<path d="M46.5691 23.8047C46.9091 23.8047 47.1847 23.5291 47.1847 23.1892C47.1847 22.8492 46.9091 22.5737 46.5691 22.5737C46.2292 22.5737 45.9536 22.8492 45.9536 23.1892C45.9536 23.5291 46.2292 23.8047 46.5691 23.8047Z" fill="#FC715A"/>
<path d="M48.8123 12.391V15.48L37.0333 11.0167H34.0231L23.1004 15.1541C22.1611 15.51 21.3522 16.1432 20.7814 16.9697C20.2105 17.7963 19.9047 18.7769 19.9045 19.7814V42.8527H17.6375C17.3991 42.8527 17.1705 42.758 17.0019 42.5894C16.8334 42.4208 16.7386 42.1922 16.7386 41.9538V12.0765L30.8552 6.7309H33.8654L48.8123 12.391Z" fill="#DB1B1B"/>
<path d="M53.0192 15.1799C52.9075 15.4751 52.7087 15.7294 52.4491 15.909C52.1896 16.0886 51.8816 16.1851 51.566 16.1857C51.3775 16.1853 51.1906 16.1501 51.0149 16.0819L49.2274 15.4083L32.7754 9.18038L17.1538 15.0969L14.5391 16.0871C14.3633 16.1553 14.1765 16.1905 13.9879 16.1909C13.625 16.1891 13.2741 16.0606 12.9958 15.8275C12.7176 15.5944 12.5296 15.2714 12.4642 14.9144C12.3988 14.5574 12.4602 14.1887 12.6378 13.8722C12.8154 13.5556 13.098 13.3111 13.4368 13.1808L17.1538 11.765L31.2704 6.41935L32.1225 6.09654C32.5497 5.96782 33.0053 5.96782 33.4325 6.09654L34.2805 6.41935L49.2274 12.0795L52.1141 13.1725C52.3053 13.2448 52.4804 13.3542 52.6294 13.4942C52.7784 13.6343 52.8984 13.8023 52.9824 13.9887C53.0665 14.1751 53.113 14.3763 53.1193 14.5807C53.1256 14.7851 53.0916 14.9887 53.0192 15.1799Z" fill="white"/>
<path d="M23.7015 19.3392C23.4468 19.3392 23.2026 19.238 23.0226 19.0579C22.8425 18.8779 22.7413 18.6337 22.7413 18.379V17.7303H21.5653V20.1519H43.9857V19.3392H23.7015Z" fill="#D8D8D8"/>
<path d="M22.7413 20.8004V20.1517H21.5653V22.5764H43.9857V21.7637H23.7015C23.5751 21.7637 23.45 21.7387 23.3333 21.6903C23.2166 21.6418 23.1107 21.5708 23.0215 21.4813C22.9323 21.3919 22.8616 21.2856 22.8135 21.1688C22.7655 21.0519 22.7409 20.9268 22.7413 20.8004Z" fill="#D8D8D8"/>
<path d="M22.7413 23.222V22.5764H21.5653V24.998H43.9857V24.1852H23.7015C23.5752 24.1851 23.4501 24.1601 23.3335 24.1116C23.2169 24.0631 23.1109 23.9921 23.0218 23.9026C22.9326 23.8131 22.8619 23.707 22.8138 23.5902C22.7657 23.4734 22.7411 23.3483 22.7413 23.222Z" fill="#D8D8D8"/>
<path d="M22.7413 25.6449V24.9962H21.5653V27.4178H43.9857V26.605H23.7015C23.4468 26.605 23.2026 26.5039 23.0226 26.3238C22.8425 26.1438 22.7413 25.8995 22.7413 25.6449Z" fill="#D8D8D8"/>
<path d="M22.7413 28.0663V27.4176H21.5653V29.8423H43.9857V29.0296H23.7015C23.5751 29.0296 23.45 29.0047 23.3333 28.9562C23.2166 28.9078 23.1107 28.8368 23.0215 28.7473C22.9323 28.6578 22.8616 28.5516 22.8135 28.4347C22.7655 28.3179 22.7409 28.1927 22.7413 28.0663Z" fill="#D8D8D8"/>
<path d="M43.9857 29.8395H21.5653V42.8527H43.9857V29.8395Z" fill="#32314B"/>
<path d="M43.9857 29.8422V32.4538H28.2759C27.1934 32.4538 26.1553 32.8838 25.3899 33.6492C24.6245 34.4146 24.1945 35.4527 24.1945 36.5351V42.8554H21.5653V29.8422H43.9857Z" fill="#27273D"/>
<path d="M36.9616 13.4227H28.5882C28.168 13.4227 27.8274 13.7633 27.8274 14.1835V15.5682C27.8274 15.9884 28.168 16.329 28.5882 16.329H36.9616C37.3818 16.329 37.7225 15.9884 37.7225 15.5682V14.1835C37.7225 13.7633 37.3818 13.4227 36.9616 13.4227Z" fill="#F6D372"/>
<path d="M37.7225 15.481V15.5682C37.7225 15.77 37.6423 15.9635 37.4996 16.1062C37.3569 16.2489 37.1634 16.329 36.9616 16.329H28.5882C28.3864 16.329 28.1929 16.2489 28.0502 16.1062C27.9076 15.9635 27.8274 15.77 27.8274 15.5682V14.1835C27.8274 13.9817 27.9076 13.7882 28.0502 13.6455C28.1929 13.5028 28.3864 13.4227 28.5882 13.4227H29.018V14.7201C29.018 14.9219 29.0981 15.1155 29.2408 15.2581C29.3835 15.4008 29.577 15.481 29.7788 15.481H37.7225Z" fill="#F7BB38"/>
<path d="M55.8705 42.8527C53.5269 46.8547 50.1769 50.1738 46.1534 52.4802C42.1299 54.7867 37.573 56.0002 32.9353 56.0002C28.2976 56.0002 23.7406 54.7867 19.7171 52.4802C15.6936 50.1738 12.3436 46.8547 10 42.8527H55.8705Z" fill="#D8D8D8"/>
</svg>
