<svg width="30" height="31" viewBox="0 0 30 31" fill="none" xmlns="http://www.w3.org/2000/svg">
<g clip-path="url(#clip0_99_406)">
<rect y="0.5" width="30" height="30" rx="15" fill="#FCC8BC"/>
<path d="M22.9632 7.06772V21.2578C22.9632 21.3723 22.9178 21.482 22.8368 21.5629C22.7559 21.6439 22.6462 21.6893 22.5317 21.6893H7.99983C7.88535 21.6893 7.77555 21.6439 7.69456 21.563C7.61356 21.4821 7.568 21.3723 7.56786 21.2578V6.91675L14.3438 4.35086H15.7887L22.9632 7.06772Z" fill="#F55B4B"/>
<path d="M20.6464 9.63049H9.88463V15.4434H20.6464V9.63049Z" fill="white"/>
<path d="M21.8865 13.5367C22.1168 13.5367 22.3035 13.35 22.3035 13.1197C22.3035 12.8894 22.1168 12.7027 21.8865 12.7027C21.6562 12.7027 21.4695 12.8894 21.4695 13.1197C21.4695 13.35 21.6562 13.5367 21.8865 13.5367Z" fill="#FC715A"/>
<path d="M21.8865 12.5463C22.0497 12.5463 22.182 12.414 22.182 12.2508C22.182 12.0877 22.0497 11.9554 21.8865 11.9554C21.7233 11.9554 21.591 12.0877 21.591 12.2508C21.591 12.414 21.7233 12.5463 21.8865 12.5463Z" fill="#FC715A"/>
<path d="M22.9632 7.06772V8.55045L17.3093 6.40806H15.8644L10.6215 8.39401C10.1706 8.56481 9.78238 8.86877 9.50837 9.26551C9.23435 9.66224 9.08755 10.133 9.08747 10.6151V21.6893H7.99933C7.8849 21.6893 7.77515 21.6439 7.69424 21.5629C7.61332 21.482 7.56786 21.3723 7.56786 21.2578V6.91675L14.3438 4.35086H15.7887L22.9632 7.06772Z" fill="#DB1B1B"/>
<path d="M24.9825 8.40636C24.9289 8.54805 24.8335 8.67009 24.7089 8.75631C24.5843 8.84253 24.4365 8.88886 24.285 8.88915C24.1945 8.88893 24.1048 8.87204 24.0204 8.83933L23.1625 8.51597L15.2655 5.52658L7.76713 8.3665L6.51209 8.84182C6.42771 8.87453 6.33802 8.89142 6.24753 8.89164C6.07331 8.89077 5.90487 8.82907 5.77132 8.71718C5.63777 8.6053 5.5475 8.45028 5.51612 8.27891C5.48474 8.10753 5.51422 7.93058 5.59947 7.77864C5.68471 7.6267 5.82036 7.50931 5.98297 7.44677L7.76713 6.76718L14.5431 4.20129L14.9521 4.04634C15.1572 3.98455 15.3759 3.98455 15.5809 4.04634L15.988 4.20129L23.1625 6.91815L24.5481 7.44278C24.6399 7.47752 24.7239 7.53 24.7954 7.59722C24.867 7.66445 24.9245 7.7451 24.9649 7.83458C25.0052 7.92406 25.0275 8.02061 25.0306 8.11872C25.0336 8.21683 25.0173 8.31457 24.9825 8.40636Z" fill="white"/>
<path d="M10.91 10.4028C10.7878 10.4028 10.6705 10.3542 10.5841 10.2678C10.4977 10.1813 10.4491 10.0641 10.4491 9.94189V9.63049H9.88463V10.7929H20.6464V10.4028H10.91Z" fill="#D8D8D8"/>
<path d="M10.4491 11.1042V10.7928H9.88463V11.9567H20.6464V11.5665H10.91C10.8493 11.5665 10.7893 11.5546 10.7333 11.5313C10.6773 11.5081 10.6264 11.474 10.5836 11.431C10.5408 11.3881 10.5068 11.3371 10.4838 11.281C10.4607 11.2249 10.4489 11.1648 10.4491 11.1042Z" fill="#D8D8D8"/>
<path d="M10.4491 12.2666V11.9567H9.88463V13.119H20.6464V12.7289H10.91C10.8494 12.7289 10.7893 12.7168 10.7334 12.6936C10.6774 12.6703 10.6265 12.6362 10.5837 12.5933C10.5409 12.5503 10.507 12.4994 10.4839 12.4433C10.4608 12.3873 10.449 12.3272 10.4491 12.2666Z" fill="#D8D8D8"/>
<path d="M10.4491 13.4295V13.1181H9.88463V14.2805H20.6464V13.8904H10.91C10.7878 13.8904 10.6705 13.8418 10.5841 13.7554C10.4977 13.669 10.4491 13.5518 10.4491 13.4295Z" fill="#D8D8D8"/>
<path d="M10.4491 14.5918V14.2804H9.88463V15.4443H20.6464V15.0541H10.91C10.8493 15.0541 10.7893 15.0422 10.7333 15.0189C10.6773 14.9957 10.6264 14.9616 10.5836 14.9186C10.5408 14.8757 10.5068 14.8247 10.4838 14.7686C10.4607 14.7125 10.4489 14.6524 10.4491 14.5918Z" fill="#D8D8D8"/>
<path d="M20.6464 15.443H9.88463V21.6893H20.6464V15.443Z" fill="#32314B"/>
<path d="M20.6464 15.4443V16.6979H13.1057C12.5861 16.6979 12.0878 16.9043 11.7204 17.2716C11.353 17.639 11.1466 18.1373 11.1466 18.6569V21.6906H9.88463V15.4443H20.6464Z" fill="#27273D"/>
<path d="M17.2749 7.56287H13.2556C13.0539 7.56287 12.8904 7.72637 12.8904 7.92807V8.59271C12.8904 8.79441 13.0539 8.95791 13.2556 8.95791H17.2749C17.4766 8.95791 17.6401 8.79441 17.6401 8.59271V7.92807C17.6401 7.72637 17.4766 7.56287 17.2749 7.56287Z" fill="#F6D372"/>
<path d="M17.6401 8.55086V8.59271C17.6401 8.68957 17.6016 8.78246 17.5331 8.85095C17.4646 8.91944 17.3717 8.95791 17.2749 8.95791H13.2556C13.1588 8.95791 13.0659 8.91944 12.9974 8.85095C12.9289 8.78246 12.8904 8.68957 12.8904 8.59271V7.92807C12.8904 7.83121 12.9289 7.73832 12.9974 7.66983C13.0659 7.60134 13.1588 7.56287 13.2556 7.56287H13.4619V8.18566C13.4619 8.28251 13.5004 8.3754 13.5689 8.44389C13.6374 8.51238 13.7302 8.55086 13.8271 8.55086H17.6401Z" fill="#F7BB38"/>
<path d="M26.3512 21.6893C25.2262 23.6103 23.6182 25.2034 21.687 26.3105C19.7557 27.4176 17.5683 28.0001 15.3422 28.0001C13.1161 28.0001 10.9288 27.4176 8.99751 26.3105C7.06622 25.2034 5.45824 23.6103 4.33331 21.6893H26.3512Z" fill="#D8D8D8"/>
</g>
<defs>
<clipPath id="clip0_99_406">
<rect width="30" height="31" rx="15" fill="white"/>
</clipPath>
</defs>
</svg>
