<svg width="31" height="31" viewBox="0 0 31 31" fill="none" xmlns="http://www.w3.org/2000/svg">
<g clip-path="url(#clip0_99_453)">
<rect x="0.833344" y="0.5" width="30" height="30" rx="15" fill="#F7BB38"/>
<path d="M24.4519 18.0605L24.6523 23.2705L28.7706 23.4234L28.7074 18.1027L24.4519 18.0605Z" fill="#989898"/>
<path d="M27.3733 18.0605L27.4365 23.2705L28.7707 23.4234L28.7496 18.1027L27.3733 18.0605Z" fill="#878787"/>
<path d="M23.508 20.5548C23.508 20.5548 23.4078 19.9272 23.9088 19.8165C24.4097 19.7058 26.1024 19.4579 26.3872 20.1013C26.6719 20.7446 26.7194 21.8836 26.2079 22.0629C25.6964 22.2422 23.8666 22.5849 23.6345 21.9785C23.4078 21.3721 23.508 20.5548 23.508 20.5548Z" fill="#B3B3B3"/>
<path d="M22.0262 20.8501C22.0262 20.8501 24.5205 20.1276 24.9845 20.502C25.4538 20.8764 25.4116 21.6569 24.9634 21.8098C24.5152 21.9627 22.2424 22.3898 22.2108 22.2896C22.1791 22.1842 22.0262 20.8501 22.0262 20.8501Z" fill="#989898"/>
<path d="M20.5445 20.6128C20.5445 20.6128 19.532 20.7762 19.4898 21.3141C19.4423 21.852 19.6427 22.8486 20.3652 22.8486C21.0876 22.8486 22.8699 23.0543 22.8805 22.3529C22.8963 21.6569 22.949 21.003 22.4744 20.7552C22.0051 20.5126 21.346 20.4388 20.5445 20.6128Z" fill="#B3B3B3"/>
<path d="M19.8747 19.6161C19.8747 19.6161 19.7113 21.2034 20.0698 21.3774C20.4284 21.5514 21.636 21.5936 21.8258 21.1032C22.0157 20.6128 21.8627 19.0782 21.8627 19.0782L19.8747 19.6161Z" fill="#989898"/>
<path d="M9.64996 12.2969C8.51095 12.5711 8.61114 12.3549 7.80434 12.9561C6.99754 13.5572 6.72333 16.0409 7.00281 17.9709C9.38631 17.5069 11.6063 17.085 11.5958 16.9743C11.5852 16.8635 11.522 12.4551 11.522 12.4551C11.522 12.4551 10.5253 12.2547 9.64996 12.2969Z" fill="#B3B3B3"/>
<path d="M18.1873 19.0361C18.1873 19.0361 18.1504 20.1435 18.7463 20.1751C19.3421 20.2067 22.1739 19.69 22.427 19.1574C22.6801 18.6248 22.4744 17.5174 22.4744 17.5174L18.1873 19.0361Z" fill="#B3B3B3"/>
<path d="M12.3762 20.713C12.3762 20.713 13.0617 21.1137 15.1816 20.4018C17.3014 19.69 22.4481 18.5879 24.0986 17.4858C25.7491 16.3837 25.3852 14.0582 25.3431 13.7049C19.7535 15.1286 13.1777 17.0534 13.1777 17.0534L12.3762 20.713Z" fill="#989898"/>
<path d="M8.98057 15.0841C9.80425 12.6757 11.9821 11.2397 13.8449 11.8768C15.7077 12.5139 16.5501 14.9828 15.7264 17.3912C14.9027 19.7996 12.7249 21.2356 10.8621 20.5985C8.99927 19.9614 8.15689 17.4925 8.98057 15.0841Z" fill="#5D5D5D"/>
<path d="M9.5603 15.2828C10.2426 13.2877 12.0467 12.0982 13.5899 12.6259C15.133 13.1537 15.8309 15.1989 15.1486 17.1939C14.4662 19.189 12.6621 20.3785 11.119 19.8508C9.57583 19.323 8.87799 17.2778 9.5603 15.2828Z" fill="#989898"/>
<path d="M11.4428 12.8506C11.5905 12.8506 11.7276 12.9982 11.7487 13.1775C11.7698 13.3568 11.6749 13.5045 11.5272 13.5045C11.3796 13.5045 11.2425 13.3568 11.2214 13.1775C11.195 12.993 11.2952 12.8506 11.4428 12.8506Z" fill="#5D5D5D"/>
<path d="M12.0387 13.7734C13.1356 13.7734 14.1691 14.8755 14.3431 16.2413C14.5172 17.607 13.7684 18.7091 12.6715 18.7091C11.5747 18.7091 10.5412 17.607 10.3671 16.2413C10.1878 14.8755 10.9419 13.7734 12.0387 13.7734Z" fill="#5D5D5D"/>
<path d="M8.27893 12.6186C10.3408 12.2758 13.916 13.3726 14.7597 18.224C14.7281 18.0605 26.2395 14.5117 26.2395 14.5117C26.2395 14.5117 26.2501 9.96087 22.1791 8.57928C17.4702 9.48628 9.19647 12.0543 8.27893 12.6186Z" fill="#CCCCCC"/>
<path d="M19.4898 9.21735C17.5281 9.65502 15.3556 10.2456 13.4361 10.8204C14.3589 11.0419 15.5454 11.6272 16.2626 13.167C17.5651 15.9671 17.4807 16.1727 17.4807 16.1727L23.3656 14.3482C22.9648 11.5534 21.4514 9.77103 19.4898 9.21735Z" fill="#B3B3B3"/>
<path d="M12.1917 14.9651C12.7612 14.9651 13.2938 15.5347 13.3834 16.236C13.4731 16.9373 13.0881 17.5068 12.5186 17.5068C11.9491 17.5068 11.4165 16.9373 11.3269 16.236C11.2372 15.5347 11.6222 14.9651 12.1917 14.9651Z" fill="#1A1A1A"/>
<path d="M11.9227 15.2604C12.1337 15.2604 12.334 15.4714 12.371 15.735C12.4026 15.9987 12.2602 16.2096 12.0493 16.2096C11.8384 16.2096 11.638 15.9987 11.6011 15.735C11.5642 15.4714 11.7065 15.2604 11.9227 15.2604Z" fill="#CCCCCC"/>
<path d="M9.88728 16.3151C10.0349 16.3151 10.172 16.4627 10.1931 16.642C10.2142 16.8213 10.1193 16.969 9.97165 16.969C9.824 16.969 9.6869 16.8213 9.6658 16.642C9.63944 16.4575 9.73963 16.3151 9.88728 16.3151Z" fill="#5D5D5D"/>
<path d="M10.5095 17.7283C10.6571 17.7283 10.7943 17.876 10.8153 18.0552C10.8364 18.2345 10.7415 18.3822 10.5939 18.3822C10.4462 18.3822 10.3091 18.2345 10.288 18.0552C10.2617 17.8707 10.3618 17.7283 10.5095 17.7283Z" fill="#5D5D5D"/>
<path d="M11.4903 18.6195C11.638 18.6195 11.7751 18.7672 11.7962 18.9464C11.8173 19.1257 11.7224 19.2734 11.5747 19.2734C11.4271 19.2734 11.29 19.1257 11.2689 18.9464C11.2425 18.7672 11.3427 18.6195 11.4903 18.6195Z" fill="#5D5D5D"/>
<path d="M12.9088 19.0044C13.0565 19.0044 13.1936 19.1521 13.2147 19.3314C13.2358 19.5107 13.1408 19.6583 12.9932 19.6583C12.8455 19.6583 12.7084 19.5107 12.6873 19.3314C12.661 19.1521 12.7612 19.0044 12.9088 19.0044Z" fill="#5D5D5D"/>
<path d="M14.1744 18.3716C14.322 18.3716 14.4591 18.5193 14.4802 18.6986C14.5013 18.8779 14.4064 19.0255 14.2588 19.0255C14.1111 19.0255 13.974 18.8779 13.9529 18.6986C13.9318 18.5193 14.032 18.3716 14.1744 18.3716Z" fill="#5D5D5D"/>
<path d="M9.89253 14.6804C10.0402 14.6804 10.1773 14.828 10.1984 15.0073C10.2195 15.1866 10.1245 15.3343 9.9769 15.3343C9.82925 15.3343 9.69214 15.1866 9.67105 15.0073C9.64996 14.828 9.75015 14.6804 9.89253 14.6804Z" fill="#5D5D5D"/>
<path d="M10.5095 13.4254C10.6571 13.4254 10.7942 13.573 10.8153 13.7523C10.8364 13.9316 10.7415 14.0793 10.5939 14.0793C10.4462 14.0793 10.3091 13.9316 10.288 13.7523C10.2669 13.573 10.3618 13.4254 10.5095 13.4254Z" fill="#5D5D5D"/>
</g>
<defs>
<clipPath id="clip0_99_453">
<rect x="0.833344" width="30" height="31" rx="15" fill="white"/>
</clipPath>
</defs>
</svg>
