<svg width="31" height="31" viewBox="0 0 31 31" fill="none" xmlns="http://www.w3.org/2000/svg">
<g clip-path="url(#clip0_99_427)">
<rect x="0.666702" y="0.5" width="30" height="30" rx="15" fill="#F55B4B"/>
<path d="M26.0718 16.1418V22.9784C26.0718 23.0336 26.0498 23.0866 26.0108 23.1256C25.9717 23.1647 25.9188 23.1866 25.8635 23.1866H18.8619C18.8067 23.1866 18.7538 23.1647 18.7147 23.1256C18.6757 23.0866 18.6537 23.0336 18.6537 22.9784V16.0695L21.9184 14.8329H22.6153L26.0718 16.1418Z" fill="#3586CB"/>
<path d="M26.0718 16.1418V16.8562L23.3477 15.8268H22.6503L20.1267 16.7829C19.9094 16.8653 19.7223 17.0119 19.5903 17.2031C19.4583 17.3943 19.3876 17.6211 19.3875 17.8535V23.1866H18.8634C18.8083 23.1866 18.7554 23.1648 18.7163 23.1258C18.6773 23.0869 18.6553 23.034 18.6552 22.9789V16.0695L21.9199 14.8329H22.6154L26.0718 16.1418Z" fill="#366FCA"/>
<path d="M27.3739 15.9568L22.5397 14.0485C22.4889 14.0287 22.435 14.018 22.3805 14.017H22.3518C22.2978 14.0183 22.2445 14.029 22.1941 14.0485L17.3594 15.9568C17.246 16.0018 17.1552 16.0901 17.1068 16.2021C17.0585 16.3142 17.0567 16.4408 17.1017 16.5542C17.1468 16.6676 17.235 16.7585 17.347 16.8068C17.4591 16.8551 17.5857 16.857 17.6991 16.8119L22.3688 14.9677L27.0385 16.8119C27.0947 16.8341 27.1546 16.8449 27.215 16.8439C27.2753 16.8429 27.3349 16.83 27.3902 16.8059C27.4456 16.7819 27.4957 16.7472 27.5376 16.7038C27.5796 16.6604 27.6126 16.6092 27.6347 16.553C27.6569 16.4969 27.6677 16.4369 27.6667 16.3765C27.6657 16.3162 27.6528 16.2566 27.6287 16.2013C27.6047 16.1459 27.57 16.0958 27.5266 16.0539C27.4832 16.0119 27.432 15.9789 27.3758 15.9568H27.3739Z" fill="white"/>
<path d="M18.6538 10.6378V23.1865H5.81385C5.76495 23.1868 5.71649 23.1774 5.67125 23.1588C5.62601 23.1403 5.58488 23.113 5.55024 23.0785C5.5156 23.0439 5.48812 23.0029 5.4694 22.9578C5.45067 22.9126 5.44106 22.8642 5.44113 22.8153V10.5082L11.2557 8.30438H12.4976L18.6538 10.6378Z" fill="#3586CB"/>
<path d="M16.6659 12.8366H7.42936V15.8465H16.6659V12.8366Z" fill="white"/>
<path d="M18.6538 10.6378V11.9103L13.8007 10.0724H12.5597L8.06183 11.7758C7.67479 11.9224 7.34151 12.1832 7.10632 12.5237C6.87113 12.8643 6.74516 13.2683 6.74517 13.6821V23.1865H5.81385C5.76494 23.1869 5.71645 23.1775 5.67118 23.159C5.6259 23.1404 5.58475 23.1131 5.5501 23.0786C5.51544 23.0441 5.48797 23.003 5.46927 22.9578C5.45056 22.9126 5.441 22.8642 5.44113 22.8153V10.5082L11.2557 8.30438H12.4976L18.6538 10.6378Z" fill="#366FCA"/>
<path d="M20.3868 11.7865C20.3407 11.9083 20.2586 12.0132 20.1515 12.0872C20.0443 12.1613 19.9172 12.2009 19.7869 12.201C19.7093 12.2011 19.6323 12.1869 19.5598 12.1592L18.825 11.8807L12.0476 9.31433L5.61189 11.7501L4.53498 12.1583C4.46248 12.186 4.38548 12.2002 4.30785 12.2C4.15781 12.1999 4.01255 12.1472 3.89734 12.0511C3.78212 11.9549 3.70424 11.8215 3.67724 11.6739C3.65024 11.5263 3.67582 11.3739 3.74953 11.2432C3.82325 11.1125 3.94044 11.0118 4.08072 10.9586L5.61189 10.3762L11.4264 8.17433L11.7778 8.04135C11.8638 8.00869 11.9559 7.99512 12.0476 8.00156C12.1394 7.99522 12.2314 8.0088 12.3175 8.04135L12.6684 8.17433L18.825 10.5038L20.0141 10.9542C20.0935 10.984 20.1662 11.0292 20.2281 11.0873C20.2899 11.1453 20.3396 11.2151 20.3742 11.2925C20.4089 11.3699 20.4279 11.4535 20.43 11.5383C20.4322 11.6231 20.4175 11.7074 20.3868 11.7865Z" fill="white"/>
<path d="M8.30918 13.4997C8.20428 13.4997 8.10367 13.458 8.0295 13.3838C7.95532 13.3096 7.91365 13.209 7.91365 13.1041V12.8372H7.42834V13.837H16.6653V13.5021L8.30918 13.4997Z" fill="#D8D8D8"/>
<path d="M7.91365 14.1018V13.8368H7.42834V14.8341H16.6653V14.4993H8.30918C8.25707 14.4993 8.20548 14.489 8.15737 14.469C8.10925 14.449 8.06556 14.4197 8.02881 14.3827C7.99205 14.3458 7.96296 14.302 7.9432 14.2538C7.92344 14.2056 7.91339 14.1539 7.91365 14.1018Z" fill="#D8D8D8"/>
<path d="M7.91365 15.0989V14.8315H7.42834V15.8293H16.6653V15.4944H8.30918C8.20428 15.4944 8.10367 15.4527 8.0295 15.3785C7.95532 15.3044 7.91365 15.2038 7.91365 15.0989Z" fill="#D8D8D8"/>
<path d="M16.6659 15.8302H7.42936V23.1866H16.6659V15.8302Z" fill="#32314B"/>
<path d="M16.6654 15.8302V18.9017H10.1937C9.74785 18.9017 9.32025 19.0788 9.00497 19.3941C8.6897 19.7094 8.51258 20.137 8.51258 20.5828V23.1866H7.42936V15.8302H16.6654Z" fill="#27273D"/>
<path d="M25.3185 18.5138H19.4521V23.1864H25.3185V18.5138Z" fill="#32314B"/>
<path d="M25.3185 18.5138V20.4647H21.2079C20.9247 20.4647 20.6531 20.5772 20.4529 20.7774C20.2527 20.9777 20.1402 21.2492 20.1402 21.5324V23.1859H19.451V18.5138H25.3185Z" fill="#27273D"/>
<path d="M13.7725 11.0627H10.3229C10.1498 11.0627 10.0094 11.203 10.0094 11.3762V11.9464C10.0094 12.1196 10.1498 12.26 10.3229 12.26H13.7725C13.9457 12.26 14.086 12.1196 14.086 11.9464V11.3762C14.086 11.203 13.9457 11.0627 13.7725 11.0627Z" fill="#F6D372"/>
<path d="M14.0855 11.9105V11.9445C14.0858 11.9858 14.0779 12.0266 14.0623 12.0648C14.0467 12.103 14.0238 12.1378 13.9947 12.1671C13.9657 12.1964 13.9312 12.2197 13.8931 12.2356C13.8551 12.2516 13.8143 12.2598 13.773 12.26H10.3229C10.2398 12.26 10.16 12.2269 10.1012 12.1681C10.0424 12.1093 10.0094 12.0296 10.0094 11.9464V11.3762C10.0094 11.293 10.0424 11.2133 10.1012 11.1545C10.16 11.0957 10.2398 11.0627 10.3229 11.0627H10.4996V11.5965C10.4995 11.6377 10.5075 11.6785 10.5232 11.7165C10.5389 11.7546 10.562 11.7892 10.591 11.8184C10.6201 11.8475 10.6546 11.8707 10.6926 11.8865C10.7307 11.9023 10.7714 11.9105 10.8126 11.9105H14.0855Z" fill="#F7BB38"/>
</g>
<defs>
<clipPath id="clip0_99_427">
<rect x="0.666702" width="30" height="31" rx="15" fill="white"/>
</clipPath>
</defs>
</svg>
