<svg width="30" height="31" viewBox="0 0 30 31" fill="none" xmlns="http://www.w3.org/2000/svg">
<g clip-path="url(#clip0_99_448)">
<rect x="3.8147e-05" y="0.5" width="30" height="30" rx="15" fill="#7CC8FB"/>
<path d="M23.1403 15.9958L24.861 14.2752C24.9423 14.191 24.9873 14.0784 24.9863 13.9614C24.9853 13.8444 24.9384 13.7325 24.8557 13.6498C24.773 13.5671 24.6611 13.5201 24.5442 13.5191C24.4272 13.5181 24.3145 13.563 24.2304 13.6442L22.3249 15.5497H21.1716L22.1714 14.5497C22.2551 14.4661 22.302 14.3526 22.302 14.2344C22.302 14.1161 22.2551 14.0027 22.1714 13.919C22.0878 13.8354 21.9744 13.7884 21.8561 13.7884C21.7378 13.7884 21.6244 13.8354 21.5408 13.919L19.9093 15.5505H16.6997C16.6591 15.3951 16.5972 15.246 16.5159 15.1074L18.7859 12.8372H21.0924C21.2107 12.8372 21.3242 12.7902 21.4078 12.7065C21.4915 12.6229 21.5385 12.5094 21.5385 12.3911C21.5385 12.2728 21.4915 12.1593 21.4078 12.0756C21.3242 11.992 21.2107 11.945 21.0924 11.945H19.6781L20.6241 10.9995C20.7079 10.9157 20.755 10.802 20.7551 10.6835C20.7551 10.565 20.708 10.4513 20.6242 10.3675C20.5404 10.2836 20.4268 10.2365 20.3082 10.2365C20.1897 10.2365 20.076 10.2835 19.9922 10.3673L19.0464 11.3133V9.89905C19.0464 9.78074 18.9994 9.66727 18.9158 9.58361C18.8321 9.49995 18.7186 9.45296 18.6003 9.45296C18.482 9.45296 18.3686 9.49995 18.2849 9.58361C18.2012 9.66727 18.1542 9.78074 18.1542 9.89905V12.2058L15.884 14.4758C15.7454 14.3945 15.5963 14.3326 15.4409 14.292V11.0819L17.0724 9.45041C17.1537 9.36629 17.1986 9.25361 17.1977 9.13664C17.1967 9.01968 17.1498 8.90778 17.0671 8.82505C16.9844 8.74233 16.8725 8.69539 16.7555 8.69435C16.6386 8.69331 16.5259 8.73825 16.4417 8.81949L15.442 9.82003V8.66706L17.3474 6.76158C17.3889 6.72015 17.4217 6.67097 17.4441 6.61684C17.4666 6.56272 17.4781 6.50471 17.4781 6.44612C17.4781 6.38754 17.4666 6.32952 17.4441 6.2754C17.4217 6.22127 17.3889 6.17209 17.3474 6.13067C17.306 6.08924 17.2568 6.05638 17.2027 6.03396C17.1486 6.01154 17.0906 6 17.032 6C16.9734 6 16.9154 6.01154 16.8613 6.03396C16.8071 6.05638 16.758 6.08924 16.7165 6.13067L14.9959 7.85133L13.2752 6.13067C13.1915 6.047 13.0781 6 12.9597 6C12.8414 6 12.7279 6.047 12.6443 6.13067C12.5606 6.21433 12.5136 6.3278 12.5136 6.44612C12.5136 6.56444 12.5606 6.67791 12.6443 6.76158L14.5498 8.66706V9.82003L13.5497 8.82C13.4656 8.73876 13.3529 8.69382 13.2359 8.69486C13.119 8.6959 13.0071 8.74284 12.9244 8.82556C12.8417 8.90829 12.7948 9.02019 12.7938 9.13715C12.7928 9.25412 12.8378 9.3668 12.9191 9.45092L14.5505 11.0824V14.292C14.3952 14.3328 14.2461 14.3946 14.1075 14.4758L11.8372 12.2058V9.89905C11.8372 9.78074 11.7902 9.66727 11.7066 9.58361C11.6229 9.49995 11.5094 9.45296 11.3911 9.45296C11.2728 9.45296 11.1593 9.49995 11.0757 9.58361C10.992 9.66727 10.945 9.78074 10.945 9.89905V11.3136L9.99955 10.3673C9.95804 10.3258 9.90876 10.2929 9.85453 10.2704C9.80029 10.248 9.74216 10.2364 9.68346 10.2364C9.62476 10.2364 9.56663 10.248 9.51239 10.2704C9.45816 10.2929 9.40888 10.3258 9.36737 10.3673C9.32586 10.4088 9.29293 10.4581 9.27047 10.5124C9.248 10.5666 9.23644 10.6247 9.23644 10.6834C9.23644 10.7421 9.248 10.8003 9.27047 10.8545C9.29293 10.9087 9.32586 10.958 9.36737 10.9995L10.3136 11.9455H8.89909C8.78078 11.9455 8.66731 11.9925 8.58365 12.0762C8.49999 12.1598 8.45299 12.2733 8.45299 12.3916C8.45299 12.5099 8.49999 12.6234 8.58365 12.707C8.66731 12.7907 8.78078 12.8377 8.89909 12.8377H11.2058L13.4758 15.108C13.3946 15.2466 13.3328 15.3956 13.292 15.551H10.0819L8.45044 13.9196C8.36633 13.8383 8.25365 13.7933 8.13668 13.7943C8.01972 13.7953 7.90782 13.8422 7.82509 13.9249C7.74237 14.0076 7.69543 14.1194 7.69439 14.2364C7.69335 14.3534 7.73829 14.4661 7.81953 14.5502L8.81956 15.5502H7.66709L5.76162 13.6448C5.67728 13.5647 5.56504 13.5208 5.44879 13.5223C5.33254 13.5238 5.22147 13.5706 5.13922 13.6528C5.05698 13.7349 5.01007 13.846 5.00848 13.9622C5.00689 14.0785 5.05074 14.1908 5.1307 14.2752L6.85137 15.9958L5.1307 17.7165C5.04704 17.8002 5.00004 17.9136 5.00004 18.0319C5.00004 18.1503 5.04704 18.2637 5.1307 18.3474C5.21437 18.4311 5.32784 18.4781 5.44616 18.4781C5.56448 18.4781 5.67795 18.4311 5.76162 18.3474L7.66709 16.4419H8.82007L7.82004 17.4419C7.77744 17.4831 7.74347 17.5323 7.7201 17.5868C7.69673 17.6412 7.68444 17.6997 7.68393 17.759C7.68343 17.8182 7.69473 17.8769 7.71717 17.9318C7.73961 17.9866 7.77275 18.0364 7.81464 18.0783C7.85654 18.1201 7.90635 18.1533 7.96118 18.1757C8.01601 18.1981 8.07475 18.2094 8.13398 18.2088C8.19322 18.2083 8.25175 18.196 8.30617 18.1726C8.36059 18.1492 8.40981 18.1152 8.45095 18.0726L10.0824 16.4412H13.292C13.3328 16.5965 13.3946 16.7456 13.4758 16.8842L11.2058 19.1545H8.89909C8.78078 19.1545 8.66731 19.2015 8.58365 19.2851C8.49999 19.3688 8.45299 19.4822 8.45299 19.6006C8.45299 19.7189 8.49999 19.8323 8.58365 19.916C8.66731 19.9997 8.78078 20.0467 8.89909 20.0467H10.3136L9.36737 20.9934C9.32594 21.0349 9.2931 21.0842 9.27071 21.1384C9.24832 21.1926 9.23683 21.2507 9.23689 21.3093C9.23695 21.368 9.24856 21.426 9.27105 21.4802C9.29355 21.5343 9.3265 21.5835 9.36801 21.625C9.40951 21.6664 9.45878 21.6992 9.51298 21.7216C9.56718 21.744 9.62527 21.7555 9.68391 21.7554C9.74256 21.7554 9.80061 21.7438 9.85477 21.7213C9.90893 21.6988 9.95813 21.6658 9.99955 21.6243L10.9455 20.6781V22.0926C10.9455 22.2109 10.9925 22.3244 11.0762 22.408C11.1599 22.4917 11.2733 22.5387 11.3916 22.5387C11.5099 22.5387 11.6234 22.4917 11.7071 22.408C11.7907 22.3244 11.8377 22.2109 11.8377 22.0926V19.7859L14.108 17.5159C14.2466 17.597 14.3957 17.6589 14.551 17.6997V20.9098L12.9196 22.5412C12.8383 22.6254 12.7933 22.738 12.7943 22.855C12.7953 22.972 12.8422 23.0839 12.9249 23.1666C13.0076 23.2493 13.1195 23.2963 13.2364 23.2973C13.3534 23.2983 13.4661 23.2534 13.5502 23.1722L14.5503 22.1721V23.3246L12.6448 25.2301C12.6015 25.271 12.5669 25.3203 12.543 25.3748C12.5191 25.4294 12.5064 25.4882 12.5056 25.5478C12.5047 25.6074 12.5159 25.6665 12.5383 25.7217C12.5607 25.7769 12.5939 25.8271 12.636 25.8692C12.6782 25.9114 12.7283 25.9446 12.7835 25.9671C12.8387 25.9896 12.8978 26.0007 12.9574 26C13.0169 25.9992 13.0757 25.9865 13.1303 25.9626C13.1849 25.9388 13.2342 25.9042 13.2752 25.861L14.9959 24.1403L16.7165 25.861C16.758 25.9024 16.8071 25.9353 16.8613 25.9577C16.9154 25.9801 16.9734 25.9916 17.032 25.9916C17.0906 25.9916 17.1486 25.9801 17.2027 25.9577C17.2568 25.9353 17.306 25.9024 17.3474 25.861C17.3889 25.8195 17.4217 25.7704 17.4441 25.7162C17.4666 25.6621 17.4781 25.6041 17.4781 25.5455C17.4781 25.4869 17.4666 25.4289 17.4441 25.3748C17.4217 25.3207 17.3889 25.2715 17.3474 25.2301L15.442 23.3246V22.1716L16.442 23.1716C16.5261 23.2529 16.6388 23.2978 16.7558 23.2968C16.8728 23.2957 16.9846 23.2488 17.0673 23.1661C17.15 23.0834 17.1969 22.9715 17.1979 22.8545C17.1989 22.7375 17.1539 22.6248 17.0726 22.5407L15.4412 20.9093V17.6997C15.5966 17.659 15.7457 17.5972 15.8842 17.5159L18.1545 19.7859V22.0926C18.1545 22.2109 18.2015 22.3244 18.2852 22.408C18.3688 22.4917 18.4823 22.5387 18.6006 22.5387C18.7189 22.5387 18.8324 22.4917 18.916 22.408C18.9997 22.3244 19.0467 22.2109 19.0467 22.0926V20.6783L19.9922 21.6243C20.0336 21.6657 20.0828 21.6986 20.1369 21.721C20.191 21.7434 20.249 21.755 20.3076 21.755C20.3662 21.755 20.4242 21.7434 20.4783 21.721C20.5325 21.6986 20.5816 21.6657 20.6231 21.6243C20.6645 21.5829 20.6974 21.5337 20.7198 21.4796C20.7422 21.4255 20.7537 21.3674 20.7537 21.3089C20.7537 21.2503 20.7422 21.1923 20.7198 21.1381C20.6974 21.084 20.6645 21.0348 20.6231 20.9934L19.6771 20.0474H21.0914C21.2097 20.0474 21.3231 20.0004 21.4068 19.9168C21.4905 19.8331 21.5375 19.7196 21.5375 19.6013C21.5375 19.483 21.4905 19.3695 21.4068 19.2859C21.3231 19.2022 21.2097 19.1552 21.0914 19.1552H18.7859L16.5159 16.885C16.5972 16.7464 16.6591 16.5973 16.6997 16.4419H19.9098L21.5413 18.0734C21.5827 18.1148 21.6318 18.1476 21.6859 18.17C21.7401 18.1924 21.798 18.204 21.8566 18.204C21.9152 18.204 21.9732 18.1924 22.0273 18.17C22.0814 18.1476 22.1305 18.1148 22.1719 18.0734C22.2133 18.032 22.2462 17.9828 22.2686 17.9287C22.291 17.8746 22.3025 17.8166 22.3025 17.758C22.3025 17.6995 22.291 17.6415 22.2686 17.5874C22.2462 17.5333 22.2133 17.4841 22.1719 17.4427L21.1716 16.4419H22.3249L24.2304 18.3474C24.3145 18.4286 24.4272 18.4736 24.5442 18.4725C24.6611 18.4715 24.773 18.4246 24.8557 18.3418C24.9384 18.2591 24.9853 18.1472 24.9863 18.0302C24.9873 17.9133 24.9423 17.8006 24.861 17.7165L23.1403 15.9958ZM14.9959 16.8669C14.8236 16.8669 14.6552 16.8158 14.5119 16.7201C14.3687 16.6244 14.2571 16.4883 14.1911 16.3292C14.1252 16.17 14.1079 15.9949 14.1416 15.8259C14.1752 15.6569 14.2581 15.5017 14.3799 15.3799C14.5018 15.2581 14.657 15.1751 14.8259 15.1415C14.9949 15.1079 15.17 15.1252 15.3292 15.1911C15.4884 15.257 15.6244 15.3687 15.7201 15.5119C15.8158 15.6551 15.8669 15.8235 15.8669 15.9958C15.8666 16.2268 15.7748 16.4481 15.6115 16.6114C15.4482 16.7747 15.2268 16.8666 14.9959 16.8669Z" fill="#BFFDFF"/>
</g>
<defs>
<clipPath id="clip0_99_448">
<rect x="3.8147e-05" width="30" height="31" rx="15" fill="white"/>
</clipPath>
</defs>
</svg>
